<?xml version="1.0" standalone="no"?>
<!DOCTYPE svg PUBLIC "-//W3C//DTD SVG 20010904//EN"
 "http://www.w3.org/TR/2001/REC-SVG-20010904/DTD/svg10.dtd">
<svg version="1.0" xmlns="http://www.w3.org/2000/svg"
 width="5906.000000pt" height="5906.000000pt" viewBox="0 0 5906.000000 5906.000000"
 preserveAspectRatio="xMidYMid meet">

<g transform="translate(0.000000,5906.000000) scale(0.100000,-0.100000)"
fill="#000000" stroke="none">
<path d="M27585 46623 c-130 -16 -295 -51 -370 -78 -112 -41 -282 -126 -334
-168 -143 -116 -177 -147 -243 -222 -86 -100 -196 -277 -238 -386 -16 -42 -39
-119 -50 -171 -11 -51 -30 -115 -42 -141 -19 -41 -26 -48 -47 -45 -23 3 -27
-2 -38 -42 -16 -63 -16 -303 1 -365 18 -67 48 -124 84 -158 21 -21 32 -42 37
-75 9 -65 73 -198 122 -254 22 -26 55 -72 73 -104 18 -31 62 -91 97 -133 58
-69 107 -139 205 -291 52 -81 103 -187 123 -255 28 -100 150 -246 255 -308 41
-23 58 -26 173 -30 104 -4 132 -8 148 -22 28 -27 24 -71 -10 -106 -31 -31 -62
-36 -118 -20 -42 12 -73 4 -73 -20 0 -24 46 -44 75 -32 16 8 415 9 633 2 38
-1 58 3 70 15 15 15 15 18 2 27 -8 5 -37 9 -65 8 -27 -1 -58 -1 -68 0 -29 2
-67 47 -67 80 0 47 39 62 176 66 127 4 159 14 248 82 62 47 149 167 172 236
24 74 114 254 153 307 18 25 60 84 94 131 34 48 107 147 162 220 55 74 113
156 129 183 16 27 37 51 47 53 20 6 37 53 59 166 7 33 18 73 25 90 7 18 18 66
24 107 10 65 10 76 -4 86 -12 9 -15 36 -15 151 0 137 -14 240 -64 463 -32 145
-179 383 -330 538 -220 225 -444 341 -767 397 -138 24 -336 32 -444 18z m500
-157 c136 -28 149 -32 260 -87 151 -74 387 -271 442 -368 14 -25 41 -62 58
-81 43 -47 111 -173 126 -235 7 -27 28 -90 47 -140 35 -90 36 -90 37 -267 2
-98 -2 -178 -6 -178 -5 0 -9 -39 -9 -87 -1 -64 -6 -103 -21 -143 -51 -137 -59
-160 -63 -193 -6 -49 -118 -208 -319 -454 -59 -72 -108 -154 -168 -283 -16
-36 -45 -96 -64 -135 -19 -38 -39 -89 -45 -112 -8 -34 -23 -51 -74 -92 -35
-28 -76 -55 -91 -61 -47 -18 -177 -24 -219 -10 -66 22 -65 8 -58 477 8 501 -1
465 135 514 98 35 144 122 96 183 -54 68 -163 76 -207 15 -23 -32 -194 -159
-215 -159 -12 0 -58 39 -117 100 -91 93 -101 100 -137 100 -44 -1 -74 -15
-101 -50 -33 -42 -35 -65 -11 -121 24 -55 59 -79 118 -79 21 0 35 -7 45 -22
21 -33 37 -138 35 -221 -2 -40 -2 -214 0 -387 l3 -315 -28 -24 c-27 -22 -34
-23 -120 -18 -110 6 -142 20 -216 90 -39 37 -60 67 -72 102 -49 143 -236 480
-317 569 -25 28 -70 83 -101 121 -30 39 -74 92 -97 120 -22 27 -41 53 -41 58
0 5 -16 43 -36 85 -20 42 -36 88 -36 102 0 14 -15 81 -33 150 -27 99 -35 153
-40 260 -3 74 -10 139 -14 143 -11 11 0 52 33 120 14 28 30 82 36 118 11 73
108 292 153 345 15 17 43 54 64 81 76 101 208 227 323 308 196 138 443 198
785 190 121 -3 190 -10 280 -29z m-559 -1800 c7 -18 -13 -56 -29 -56 -7 0 -23
9 -36 21 -17 16 -20 24 -10 35 15 18 68 18 75 0z m501 3 c17 -17 4 -39 -22
-39 -26 0 -50 24 -40 40 8 13 48 13 62 -1z m-242 -189 c19 -33 20 -56 26 -460
4 -270 2 -433 -4 -447 -21 -47 -96 -54 -137 -13 -19 19 -20 35 -20 428 1 423
3 444 44 508 25 36 64 30 91 -16z m15 -1110 c24 -24 25 -41 5 -80 -20 -38 -49
-53 -86 -45 -31 7 -69 55 -69 87 0 53 108 80 150 38z"/>
<path d="M24912 45835 c-24 -14 -61 -39 -82 -57 -21 -18 -64 -49 -96 -68 -67
-40 19 -37 -639 -25 -477 9 -762 -5 -930 -45 -66 -16 -137 -31 -159 -35 -21
-4 -77 -18 -125 -32 -47 -14 -140 -40 -206 -58 -140 -38 -250 -75 -357 -122
-43 -18 -83 -33 -89 -33 -12 0 -146 -61 -214 -98 -16 -8 -48 -24 -70 -34 -22
-11 -53 -26 -70 -35 -66 -36 -158 -85 -221 -118 -37 -19 -74 -41 -83 -48 -9
-8 -32 -20 -52 -26 -20 -7 -45 -21 -55 -32 -11 -12 -39 -31 -64 -44 -25 -13
-54 -32 -64 -44 -11 -12 -24 -21 -30 -21 -13 0 -148 -91 -182 -121 -11 -11
-24 -19 -28 -19 -4 0 -62 -49 -129 -109 -67 -60 -152 -134 -188 -163 -81 -65
-301 -254 -384 -328 -33 -30 -91 -80 -129 -110 -107 -86 -240 -200 -256 -220
-8 -10 -39 -36 -68 -58 -29 -22 -88 -72 -130 -112 -42 -40 -127 -116 -189
-169 -61 -53 -160 -141 -220 -196 -188 -173 -329 -292 -472 -397 -24 -18 -69
-55 -100 -81 -31 -27 -69 -56 -86 -64 -16 -9 -60 -42 -97 -74 -37 -32 -82 -66
-100 -75 -18 -9 -51 -30 -73 -46 -83 -60 -111 -78 -150 -96 -22 -11 -47 -27
-54 -36 -8 -10 -33 -27 -55 -38 -23 -12 -54 -31 -71 -43 -26 -19 -130 -62
-191 -79 -31 -9 -201 48 -261 88 -21 14 -60 30 -85 34 -25 5 -66 20 -90 34
-23 14 -59 29 -78 33 -19 4 -63 23 -98 41 -35 19 -72 34 -81 34 -10 0 -43 13
-74 30 -31 16 -78 34 -104 40 -26 6 -65 22 -86 36 -21 13 -61 29 -90 35 -28 5
-79 22 -113 38 -34 16 -86 32 -115 36 -30 4 -82 18 -115 30 -153 57 -632 92
-724 53 -75 -33 -75 -30 -78 -320 l-3 -260 30 -64 c17 -35 35 -90 41 -121 5
-31 15 -62 20 -67 16 -16 12 -64 -10 -105 -19 -38 -63 -81 -82 -81 -16 0 -126
-79 -161 -115 -33 -34 -127 -183 -127 -201 0 -4 -17 -47 -37 -94 l-38 -85 1
-311 c2 -307 10 -412 40 -496 16 -47 11 -50 -100 -68 -139 -21 -409 -135 -505
-213 -143 -116 -177 -147 -243 -222 -86 -100 -196 -277 -238 -386 -16 -42 -39
-119 -50 -171 -11 -51 -36 -127 -55 -168 -71 -155 -71 -371 0 -511 19 -38 42
-102 50 -140 19 -91 71 -202 122 -261 22 -25 58 -75 79 -110 21 -35 64 -94 97
-133 66 -79 211 -295 251 -372 14 -29 25 -60 24 -70 -2 -15 3 -45 27 -158 2
-11 22 -44 44 -73 22 -29 43 -62 47 -74 3 -11 18 -31 33 -44 19 -17 22 -23 10
-24 -9 0 -24 10 -35 21 -10 12 -32 30 -49 40 -16 10 -50 37 -75 60 -59 53
-151 119 -168 119 -7 0 -25 -8 -40 -19 -15 -10 -49 -31 -76 -47 -26 -16 -56
-34 -65 -39 -9 -6 -47 -28 -86 -49 -38 -22 -85 -50 -103 -63 -17 -13 -47 -29
-65 -35 -17 -6 -48 -22 -67 -37 -19 -15 -48 -32 -64 -39 -16 -7 -41 -22 -55
-33 -14 -11 -55 -38 -90 -60 -103 -65 -144 -69 -726 -69 l-500 0 -50 -38 c-40
-30 -52 -46 -58 -77 -4 -22 -18 -74 -31 -115 -13 -41 -27 -86 -30 -100 -7 -33
-75 -138 -138 -215 -28 -33 -110 -116 -183 -185 -73 -69 -166 -165 -207 -215
-42 -49 -88 -101 -103 -115 -27 -25 -57 -67 -96 -136 -27 -50 -25 -114 5 -143
13 -12 26 -39 30 -59 3 -20 22 -57 41 -81 19 -24 35 -49 35 -56 0 -7 18 -37
40 -66 22 -30 40 -64 40 -77 0 -13 14 -44 31 -69 23 -36 32 -63 39 -122 5 -47
19 -99 37 -136 27 -59 28 -65 32 -265 5 -322 -23 -1057 -45 -1157 -4 -23 -6
-23 -188 -23 l-184 0 -6 -23 c-3 -13 -17 -30 -32 -38 -35 -18 -104 -97 -104
-119 0 -9 -13 -42 -30 -73 l-30 -57 0 -4177 0 -4178 24 -45 c13 -25 26 -58 30
-73 11 -47 94 -127 163 -159 l63 -28 4486 0 c2467 0 4491 -3 4497 -7 7 -3 37
-25 67 -48 54 -42 171 -105 220 -120 14 -4 36 -15 50 -25 14 -10 41 -21 60
-25 19 -3 89 -19 155 -35 66 -15 140 -32 165 -38 72 -15 75 -16 82 -34 5 -12
18 -18 42 -18 24 0 36 5 40 18 5 16 560 17 11508 12 12096 -5 11617 -3 11561
-45 -17 -13 -15 -14 16 -15 26 0 -25 -29 -255 -146 -159 -80 -327 -161 -374
-180 -46 -19 -105 -48 -131 -65 -25 -16 -102 -53 -171 -82 -68 -30 -144 -67
-169 -84 -24 -16 -132 -72 -239 -124 -107 -51 -224 -111 -259 -132 -35 -21
-109 -56 -165 -77 -55 -22 -132 -59 -171 -83 -38 -23 -113 -60 -165 -82 -52
-21 -122 -56 -156 -77 -34 -21 -92 -52 -130 -68 -81 -36 -301 -147 -394 -200
-36 -20 -103 -51 -150 -70 -47 -19 -120 -55 -163 -81 -43 -26 -111 -60 -150
-75 -82 -30 -149 -64 -222 -111 -27 -18 -53 -33 -58 -33 -12 0 -392 -190 -455
-228 -29 -18 -56 -32 -61 -32 -21 0 -146 -56 -230 -105 -53 -30 -127 -66 -166
-80 -38 -15 -110 -50 -160 -79 -49 -30 -122 -67 -160 -84 -39 -17 -156 -75
-260 -128 -105 -54 -230 -115 -279 -136 -49 -20 -110 -51 -135 -68 -26 -16
-96 -50 -156 -75 -61 -26 -137 -64 -171 -85 -34 -21 -90 -51 -125 -65 -35 -15
-161 -77 -279 -139 -118 -62 -246 -126 -285 -142 -38 -16 -110 -52 -159 -81
-50 -29 -94 -53 -99 -53 -24 0 -151 -59 -222 -103 -44 -28 -116 -66 -160 -84
-44 -18 -98 -43 -120 -54 -22 -12 -103 -54 -180 -94 -77 -40 -165 -83 -195
-95 -86 -34 -120 -51 -192 -97 -36 -24 -104 -57 -150 -73 -45 -17 -126 -55
-178 -85 -52 -29 -139 -72 -192 -95 -53 -23 -143 -66 -198 -96 -84 -45 -110
-54 -151 -54 -75 0 -196 -28 -267 -61 -83 -37 -135 -80 -176 -141 -33 -48 -40
-52 -427 -246 -217 -109 -414 -206 -439 -217 -25 -11 -83 -42 -130 -69 -90
-51 -261 -127 -295 -129 -19 -2 -20 5 -23 170 l-2 173 285 0 286 0 -3 33 -3
32 -315 0 -315 0 -3 -236 -2 -237 -88 -37 c-48 -20 -166 -78 -262 -128 -317
-164 -329 -170 -356 -163 -43 11 -119 91 -148 157 -105 233 -9 494 209 569 41
14 84 20 146 20 103 0 174 -22 246 -77 l46 -35 20 21 21 21 -24 25 c-41 44
-156 94 -245 107 -144 20 -297 -27 -394 -121 -89 -86 -131 -198 -131 -347 0
-145 35 -239 126 -334 30 -31 54 -60 54 -63 0 -11 -96 -56 -183 -87 -45 -16
-119 -51 -165 -79 -46 -27 -104 -57 -130 -67 -84 -30 -187 -80 -201 -98 -8 -9
-57 -41 -110 -72 -53 -31 -111 -67 -130 -80 -19 -14 -46 -27 -60 -30 -43 -9
-125 -44 -146 -62 -22 -18 -55 -62 -55 -73 0 -16 160 29 220 62 36 19 88 43
115 54 28 10 82 35 120 56 39 21 126 57 195 80 132 44 167 59 240 101 25 15
93 42 153 62 59 19 140 52 180 74 117 63 199 92 259 92 93 0 214 46 288 108
28 24 32 32 23 44 -10 12 -1 20 55 50 120 64 112 69 112 -71 l0 -121 325 0
325 0 0 35 0 35 -290 0 -290 0 0 74 c0 129 -3 124 122 181 230 105 225 103
326 104 l93 1 -3 37 -3 37 150 74 c83 41 177 85 210 97 33 13 130 57 215 99
85 42 158 76 162 76 4 0 16 -17 27 -38 45 -87 154 -162 288 -196 34 -9 111
-23 170 -31 252 -35 344 -97 331 -220 -12 -103 -106 -165 -265 -173 -191 -10
-326 52 -402 186 -9 15 -18 13 -93 -25 -130 -66 -125 -60 -93 -123 38 -76 126
-160 205 -197 96 -46 189 -63 335 -63 149 0 240 18 341 66 163 77 248 248 215
428 -38 206 -171 292 -534 345 -76 12 -159 30 -183 40 -55 25 -94 63 -94 94 0
20 12 28 83 57 45 18 130 55 188 82 88 40 110 46 135 39 48 -14 92 -39 135
-78 l41 -37 94 47 c52 26 94 52 94 58 0 15 -36 67 -78 111 -26 27 -32 39 -21
42 91 32 134 52 185 82 63 38 122 64 246 108 42 15 103 43 135 63 44 26 462
213 478 213 2 0 38 20 81 44 44 24 133 63 199 86 66 23 149 59 185 80 70 41
104 56 220 100 41 15 165 72 274 125 110 53 234 108 275 122 42 14 121 49 176
79 55 29 141 67 190 85 50 17 131 53 180 79 50 27 128 64 175 83 95 39 235
103 385 177 55 27 144 65 198 84 53 20 124 51 157 70 33 19 113 56 177 81 65
26 156 67 203 91 47 24 121 59 165 78 241 103 328 141 405 180 47 24 128 58
180 76 84 29 120 46 235 110 17 9 73 33 125 53 52 19 167 70 255 112 88 42
187 89 220 104 33 16 96 42 140 57 44 16 114 47 155 70 41 23 127 61 190 84
63 23 153 64 200 91 47 26 117 60 155 74 74 28 109 44 330 150 77 37 187 85
244 107 115 43 153 61 221 101 25 14 94 45 154 67 60 22 136 56 170 74 62 33
351 166 362 166 6 0 141 56 164 69 8 4 44 24 80 44 36 19 99 46 140 60 41 14
91 32 111 41 l37 15 6 -32 c4 -21 -1 -52 -14 -87 -18 -50 -20 -80 -20 -335 0
-290 0 -287 -44 -350 -19 -26 -20 -50 -20 -533 -1 -465 0 -507 16 -528 10 -12
29 -25 44 -28 24 -6 26 -9 19 -49 -6 -36 -14 -196 -16 -332 -1 -22 2 -63 6
-91 5 -32 3 -65 -5 -88 -9 -29 -8 -57 5 -145 14 -89 15 -122 6 -174 -17 -100
-14 -211 8 -265 17 -41 20 -82 25 -337 3 -176 12 -337 22 -410 11 -87 15 -180
13 -340 -2 -121 -2 -290 0 -375 2 -95 -1 -171 -8 -196 -11 -40 -15 -43 -128
-99 -65 -31 -149 -68 -188 -81 -38 -14 -109 -47 -158 -75 -48 -28 -129 -68
-180 -89 -136 -56 -291 -126 -380 -171 -44 -22 -122 -56 -174 -75 -53 -18
-131 -54 -173 -79 -43 -25 -123 -63 -178 -85 -100 -39 -134 -55 -162 -77 -8
-6 -49 -25 -90 -41 -42 -17 -111 -48 -155 -70 -44 -22 -116 -54 -160 -70 -44
-16 -114 -50 -155 -76 -41 -26 -106 -56 -145 -68 -38 -11 -110 -42 -160 -69
-49 -26 -128 -64 -175 -84 -123 -52 -247 -110 -395 -186 -71 -36 -166 -79
-210 -94 -43 -16 -115 -48 -160 -71 -44 -23 -127 -61 -185 -83 -58 -23 -168
-73 -245 -111 -77 -38 -191 -92 -253 -120 -62 -28 -178 -83 -257 -121 -79 -38
-147 -69 -152 -69 -24 0 -178 -67 -253 -110 -47 -27 -121 -61 -165 -75 -43
-14 -111 -46 -150 -70 -38 -24 -101 -56 -138 -70 -37 -14 -99 -41 -138 -61
-39 -19 -107 -49 -152 -65 -45 -17 -113 -49 -152 -73 -38 -23 -108 -55 -155
-70 -47 -15 -121 -49 -165 -75 -44 -27 -114 -61 -155 -75 -75 -28 -269 -118
-434 -202 -49 -26 -125 -59 -170 -75 -45 -17 -110 -47 -146 -68 -36 -21 -110
-55 -165 -76 -55 -20 -172 -72 -260 -115 -88 -43 -171 -81 -185 -85 -14 -4
-118 -53 -231 -109 -113 -56 -241 -114 -285 -130 -43 -16 -128 -53 -189 -84
-60 -30 -150 -70 -200 -89 -49 -19 -125 -55 -167 -79 l-77 -44 -47 32 c-25 18
-65 50 -87 72 -42 38 -84 61 -207 111 -57 24 -73 26 -133 20 -65 -6 -71 -5
-110 22 -38 25 -52 28 -143 31 -75 3 -110 0 -138 -12 -21 -9 -50 -16 -65 -16
-14 0 -47 -8 -74 -17 -41 -15 -53 -15 -90 -4 -57 19 -194 25 -238 12 -20 -6
-54 -23 -75 -37 l-39 -27 -155 6 c-165 6 -167 6 -233 -46 -33 -26 -43 -28 -85
-23 -136 19 -148 18 -193 -4 -37 -18 -70 -23 -218 -29 -154 -7 -180 -6 -222
10 -102 37 -145 80 -163 166 -4 17 -26 52 -48 78 l-41 46 7 178 c8 200 2 242
-44 295 -17 18 -30 38 -30 43 0 5 -15 27 -34 49 -43 50 -96 69 -158 54 -24 -5
-78 -10 -121 -10 -79 0 -108 -9 -138 -40 -13 -12 -42 -19 -111 -24 -52 -3
-127 -16 -168 -27 -51 -14 -91 -19 -125 -16 -30 3 -66 -1 -90 -9 -22 -7 -77
-14 -122 -14 -57 0 -93 -5 -118 -17 -31 -15 -44 -15 -105 -5 -95 16 -174 15
-257 -4 -66 -15 -71 -14 -121 5 -41 16 -75 21 -151 21 -69 0 -107 5 -127 15
-22 11 -46 14 -101 9 -56 -5 -81 -3 -115 11 -27 11 -86 20 -160 24 -109 7
-120 9 -145 33 -38 36 -73 48 -142 48 -40 0 -72 7 -107 24 -29 15 -73 26 -109
29 -56 3 -103 16 -148 39 -34 17 -170 48 -211 48 -31 0 -47 7 -72 31 -28 27
-43 33 -101 38 -54 5 -79 13 -118 39 -29 19 -61 32 -80 32 -18 0 -44 9 -58 20
-41 32 -92 50 -145 50 -40 0 -60 8 -120 46 -55 35 -86 47 -134 54 -38 6 -65
15 -70 24 -13 23 -62 46 -99 46 -19 0 -43 10 -60 25 -17 13 -62 34 -102 45
-40 12 -100 32 -134 46 -34 13 -66 24 -71 24 -5 0 -46 18 -91 40 -44 22 -85
40 -90 40 -5 0 -32 16 -61 36 -34 23 -70 38 -106 44 -39 7 -66 18 -90 40 -30
26 -42 30 -92 30 -52 0 -62 4 -95 34 -34 31 -72 46 -119 46 -10 0 -36 13 -56
29 -20 16 -54 31 -75 34 -21 3 -51 17 -68 31 -17 15 -43 26 -60 26 -16 0 -46
6 -66 14 -21 8 -50 17 -65 20 -15 4 -44 17 -64 31 -20 14 -49 25 -63 25 -40 0
-92 17 -115 38 -12 11 -38 22 -59 25 -24 4 -53 19 -78 41 -31 29 -47 36 -79
36 -22 0 -48 4 -58 8 -9 5 -40 21 -68 35 -31 16 -68 27 -92 27 -23 0 -44 5
-47 10 -4 7 127 10 384 10 377 0 391 1 391 19 0 21 19 31 56 31 40 0 374 69
454 95 41 12 106 31 145 40 38 10 86 26 105 35 19 10 75 37 124 61 49 23 106
59 128 80 34 32 39 42 36 75 -4 48 -28 56 -59 20 -76 -88 -248 -158 -554 -228
-187 -42 -259 -53 -475 -73 -546 -50 -689 -54 -1070 -25 -85 7 -164 16 -175
22 -11 5 -36 18 -55 28 -21 12 -56 19 -88 20 -33 0 -68 8 -94 21 -37 19 -47
20 -75 10 -41 -15 -121 -5 -148 19 -32 28 -56 37 -121 45 -91 10 -89 7 -89
137 0 123 3 113 -77 238 -20 30 -45 64 -57 74 -12 11 -32 38 -44 59 -13 23
-45 55 -76 76 -30 20 -66 44 -80 53 -19 13 -43 17 -91 15 -55 -2 -70 2 -97 22
-33 25 -77 37 -188 50 -38 5 -83 14 -98 20 -16 6 -54 11 -85 11 -44 0 -61 5
-80 23 -21 19 -34 22 -106 22 -75 0 -85 2 -115 28 -34 28 -46 32 -125 41 -27
4 -61 14 -74 24 -46 33 -87 52 -113 52 -14 0 -43 13 -64 30 -21 16 -56 35 -79
41 -22 6 -52 21 -66 34 -14 13 -42 31 -62 39 -20 9 -53 27 -74 41 -20 14 -44
25 -54 25 -9 0 -31 13 -48 30 -17 16 -48 36 -69 45 -21 9 -54 28 -73 44 -19
15 -56 38 -82 51 -27 13 -48 27 -48 32 0 5 -14 17 -31 27 l-31 19 69 40 c38
23 105 55 148 72 43 17 155 70 249 118 94 48 209 105 256 127 47 22 114 57
150 79 36 21 95 51 131 66 66 27 236 116 334 173 28 16 86 46 130 67 147 69
305 185 305 224 0 40 -183 3 -313 -64 -55 -27 -134 -59 -178 -70 -43 -11 -114
-36 -156 -56 -43 -20 -181 -82 -308 -139 -126 -57 -282 -130 -345 -162 -63
-33 -137 -68 -165 -78 -27 -10 -106 -45 -175 -77 -138 -66 -317 -139 -340
-140 -23 -1 -148 87 -215 151 -33 32 -78 69 -100 81 -22 13 -58 42 -80 65 -51
51 -166 153 -198 174 -13 9 -73 59 -132 111 -60 52 -132 114 -160 137 -29 24
-55 50 -59 58 -3 8 -29 30 -58 49 -58 37 -102 77 -132 121 -10 15 -39 36 -65
48 -25 11 -67 41 -92 67 -25 26 -65 60 -89 75 -24 15 -64 46 -89 70 -25 23
-73 57 -106 75 -33 18 -79 51 -102 72 -24 21 -47 38 -52 38 -15 0 -118 65
-156 99 -20 17 -41 31 -46 31 -6 0 -28 13 -48 29 -20 16 -52 32 -71 36 -19 4
-48 20 -65 35 -42 39 -162 100 -196 100 -19 0 -43 12 -68 36 -22 19 -57 40
-77 46 -20 5 -53 20 -73 33 -20 13 -56 27 -81 31 -25 4 -72 21 -105 40 -33 18
-82 36 -110 40 -27 4 -82 22 -122 41 -39 18 -102 41 -140 49 -37 9 -89 25
-115 35 -29 12 -71 19 -113 19 -56 0 -76 5 -135 36 l-69 36 -163 -11 -163 -12
-79 37 c-97 45 -180 55 -255 30 -27 -9 -57 -16 -65 -16 -16 0 -102 87 -123
124 -7 12 -12 61 -13 117 0 96 0 96 -40 152 -22 30 -40 60 -40 66 0 7 -17 30
-39 54 -33 36 -39 50 -43 98 -3 36 -12 66 -25 83 -11 14 -27 47 -34 72 -8 28
-27 57 -45 74 -19 16 -47 62 -69 111 -21 46 -52 100 -70 119 -18 19 -40 49
-48 65 -9 17 -37 56 -64 88 -26 32 -58 73 -71 90 -42 58 -466 488 -567 575
-55 47 -156 140 -226 206 -69 67 -159 147 -200 178 -40 31 -106 87 -145 125
-38 37 -141 136 -228 218 -86 83 -166 165 -177 183 -38 59 -51 62 -329 62
-154 0 -259 -4 -271 -10 -41 -23 -24 -55 98 -183 345 -362 452 -468 528 -527
28 -21 145 -129 261 -241 116 -112 244 -232 286 -266 119 -98 650 -633 696
-700 23 -34 47 -65 52 -68 6 -4 22 -23 35 -43 13 -21 47 -71 76 -112 28 -41
58 -93 65 -114 8 -22 25 -53 38 -70 13 -17 27 -42 31 -56 4 -14 20 -47 35 -75
19 -34 30 -72 35 -120 4 -42 18 -97 36 -136 20 -46 30 -91 35 -150 5 -57 15
-102 32 -139 14 -30 28 -86 32 -123 8 -72 24 -104 74 -141 26 -20 45 -21 344
-27 320 -7 534 -25 642 -55 30 -8 105 -19 165 -24 84 -6 123 -15 166 -34 31
-15 87 -30 125 -35 45 -6 90 -20 128 -40 32 -17 70 -31 85 -31 14 0 57 -16 95
-35 39 -19 79 -35 89 -35 11 0 43 -13 71 -29 28 -16 69 -34 91 -41 22 -7 56
-24 75 -36 19 -13 51 -29 70 -35 19 -7 49 -23 66 -36 17 -12 47 -29 66 -35 82
-29 367 -213 600 -386 20 -15 55 -40 78 -57 23 -16 82 -64 130 -105 49 -41
130 -109 181 -150 135 -110 342 -290 357 -312 7 -10 27 -25 44 -34 34 -18 156
-117 262 -214 39 -36 106 -93 149 -125 42 -33 101 -79 130 -102 28 -24 116
-91 195 -150 79 -60 171 -132 205 -160 34 -29 82 -65 107 -80 25 -15 86 -54
137 -87 171 -113 193 -126 206 -126 8 0 32 -12 53 -27 21 -14 64 -37 94 -50
30 -14 66 -33 81 -44 15 -10 36 -19 47 -19 11 0 43 -16 71 -35 28 -19 60 -35
72 -35 12 0 50 -15 83 -34 34 -18 79 -37 101 -41 22 -3 63 -19 90 -35 28 -15
73 -30 102 -34 29 -4 83 -19 120 -35 37 -16 97 -32 133 -35 36 -4 106 -20 155
-36 50 -15 118 -31 152 -34 73 -7 143 -32 143 -53 0 -8 24 -40 54 -71 40 -42
56 -68 62 -97 4 -22 13 -58 21 -80 8 -22 20 -72 28 -112 11 -58 22 -82 60
-132 26 -34 50 -61 54 -61 5 0 30 -17 56 -37 45 -34 58 -38 151 -49 60 -8 122
-22 151 -35 31 -14 89 -26 164 -34 76 -9 135 -22 175 -38 32 -14 84 -28 114
-32 30 -4 82 -17 115 -30 77 -30 120 -42 173 -49 24 -4 65 -17 92 -31 26 -13
78 -29 115 -35 38 -6 87 -22 110 -36 24 -13 67 -29 96 -33 30 -5 83 -23 119
-39 36 -16 84 -32 107 -36 23 -3 74 -22 114 -41 41 -19 79 -35 87 -35 7 0 38
-13 70 -29 31 -16 73 -32 92 -36 19 -4 67 -22 106 -41 39 -19 77 -34 84 -34 7
0 51 -17 99 -39 47 -21 104 -44 126 -51 22 -7 50 -20 63 -28 13 -8 51 -25 85
-37 96 -35 184 -72 282 -120 151 -73 218 -102 264 -115 25 -6 61 -23 80 -36
20 -13 47 -24 61 -24 14 0 59 -17 100 -39 41 -21 93 -41 115 -45 22 -4 65 -21
95 -37 30 -16 76 -33 103 -38 26 -5 64 -20 85 -34 20 -14 60 -31 87 -37 28 -6
69 -22 92 -36 23 -13 66 -29 95 -34 29 -6 76 -21 103 -35 28 -13 73 -31 101
-39 28 -7 71 -24 95 -37 24 -12 73 -28 109 -36 36 -7 88 -24 115 -37 28 -14
80 -29 116 -34 37 -6 86 -20 109 -32 26 -13 83 -27 144 -35 56 -7 142 -25 191
-39 50 -14 135 -32 191 -40 55 -7 122 -23 149 -35 36 -16 83 -24 184 -31 75
-5 188 -17 251 -25 66 -9 240 -18 410 -21 264 -5 314 -4 475 16 99 12 237 25
307 30 98 7 136 14 169 30 66 34 106 31 141 -10 39 -47 64 -120 72 -209 4 -43
17 -99 32 -135 14 -34 31 -76 37 -94 6 -18 52 -80 101 -138 98 -112 163 -160
273 -199 34 -12 72 -29 85 -37 39 -25 89 -36 198 -42 144 -7 473 10 535 28
101 30 172 45 256 56 48 5 113 19 145 31 35 11 119 26 204 34 80 8 231 24 335
35 210 24 323 23 445 -5 157 -36 148 -30 362 -246 108 -109 208 -203 223 -209
14 -5 89 -10 167 -10 l140 0 137 138 c149 151 274 263 318 285 15 8 82 22 148
31 66 9 163 24 215 32 52 8 151 19 220 25 69 6 154 17 190 24 70 15 253 77
273 93 7 6 41 26 77 45 103 54 219 120 295 168 70 43 70 43 180 47 96 3 126 0
220 -23 94 -24 137 -28 295 -32 209 -6 506 9 655 32 55 8 154 20 220 25 153
13 378 62 590 129 50 16 117 32 149 35 33 4 64 10 70 15 27 20 103 42 182 51
47 5 113 20 147 34 34 13 101 29 148 35 48 6 120 23 160 37 41 13 116 31 167
40 51 8 111 24 132 35 22 12 80 27 129 34 49 8 107 23 129 34 30 15 75 23 179
31 76 6 172 17 213 25 210 40 569 45 740 10 127 -26 250 -37 360 -33 92 4 114
8 175 36 39 17 89 36 111 42 23 5 47 17 54 25 6 7 33 22 58 31 93 34 349 198
482 308 165 136 402 374 459 461 14 22 41 59 59 83 17 24 32 50 32 57 0 7 11
27 25 43 14 17 25 34 25 39 0 5 14 28 30 50 17 23 37 64 45 91 8 27 22 55 31
63 21 18 44 64 44 91 1 13 9 39 20 58 34 64 42 84 50 142 5 32 18 71 30 88 11
16 27 58 34 92 7 35 25 97 40 138 19 51 30 110 37 190 6 68 21 147 36 195 18
59 27 118 34 225 5 80 14 172 19 205 13 79 13 1140 0 1505 -6 157 -15 521 -20
810 -10 503 -17 629 -52 865 -10 68 -13 253 -13 745 1 670 3 724 41 855 9 29
19 135 25 257 7 151 15 228 30 280 11 40 27 123 35 183 9 61 31 162 51 225 19
63 38 126 42 140 l8 25 764 -1 c420 -1 888 -3 1039 -5 362 -4 681 12 775 39
39 11 117 30 175 43 58 12 118 31 135 41 16 10 39 18 50 18 21 0 31 5 135 64
135 78 339 252 402 345 106 155 138 204 138 211 0 5 16 42 35 83 19 41 35 83
35 94 0 20 38 138 60 185 15 31 19 33 110 52 37 8 85 24 106 36 98 53 136 79
188 128 31 28 60 52 65 52 4 0 22 13 41 30 18 16 49 33 69 36 20 4 52 15 71
24 49 25 139 40 236 40 75 0 85 2 115 27 30 26 89 132 89 161 0 21 40 152 60
197 9 22 21 51 25 65 4 14 18 45 30 70 13 25 30 74 39 110 15 61 26 90 77 208
11 27 19 61 17 78 -3 26 -7 29 -48 35 -25 4 -94 21 -155 39 -60 18 -132 36
-160 40 -27 5 -79 19 -115 33 -36 13 -86 27 -111 31 -26 4 -71 16 -100 28 -30
11 -86 26 -126 34 -39 7 -89 20 -110 29 -21 9 -74 23 -118 31 -44 7 -94 21
-112 29 -18 9 -64 22 -101 29 -37 7 -98 23 -137 34 -38 12 -115 33 -170 47
-278 71 -373 96 -421 115 -92 34 -115 11 -129 -130 -4 -36 -17 -108 -30 -160
-13 -52 -29 -144 -34 -205 -6 -60 -18 -132 -26 -160 -25 -79 -46 -255 -33
-279 14 -28 49 -66 60 -66 20 0 137 -94 209 -167 82 -83 131 -167 143 -241 12
-80 97 -224 184 -311 26 -26 33 -40 28 -60 -17 -84 -41 -162 -62 -202 -13 -26
-24 -55 -24 -66 0 -22 -53 -109 -109 -178 -22 -27 -56 -69 -75 -92 -95 -118
-295 -253 -433 -292 -37 -10 -84 -26 -103 -34 -19 -8 -82 -20 -140 -26 -124
-13 -26561 -17 -26574 -4 -4 5 -65 8 -134 9 -114 1 -136 4 -218 32 -50 17
-113 42 -140 55 -27 14 -67 33 -88 43 -22 10 -56 34 -78 54 l-38 37 0 4235 0
4235 -30 41 c-16 23 -30 49 -30 57 0 9 -27 44 -61 78 -33 34 -65 70 -70 80 -9
16 -215 17 -4107 17 l-4097 0 -3 105 c-2 58 -3 156 -3 218 1 61 0 141 0 177
-1 57 -1 300 0 480 0 33 0 108 0 168 0 59 0 136 1 172 2 99 -14 258 -28 272
-7 7 -12 32 -12 58 -1 25 -9 63 -20 85 -11 22 -19 60 -20 84 0 37 -5 48 -35
75 -19 18 -35 42 -35 54 0 12 -16 39 -35 61 -35 38 -35 39 -35 130 0 104 -7
91 113 194 31 26 64 60 73 76 9 15 34 39 56 52 22 13 79 69 126 123 83 95 99
117 156 214 29 49 64 96 116 152 l35 37 175 7 c96 4 300 5 452 2 l278 -4 32
25 c52 39 166 103 182 103 8 0 27 10 43 23 15 13 78 50 138 82 61 32 121 68
135 81 14 13 45 30 69 38 23 9 56 27 73 41 16 14 36 25 43 25 7 0 26 11 42 24
15 13 46 33 69 44 22 11 46 28 54 37 7 9 54 44 104 77 50 34 103 71 119 84
l27 23 48 -29 c44 -27 55 -29 175 -34 104 -3 132 -7 148 -21 28 -27 24 -71
-10 -106 -31 -31 -62 -36 -118 -20 -42 12 -73 4 -73 -20 0 -24 46 -44 75 -31
16 7 416 8 633 1 38 -1 58 3 70 15 15 15 15 18 2 27 -8 5 -37 9 -65 8 -27 -1
-58 -1 -68 0 -29 2 -67 47 -67 80 0 47 39 62 176 66 127 4 159 14 248 82 62
47 149 167 172 236 24 74 114 254 153 307 18 25 60 84 94 131 34 48 107 147
162 220 179 239 176 232 251 564 22 97 18 387 -6 524 -25 136 -55 268 -69 301
-23 54 -109 202 -162 282 -68 102 -231 267 -325 329 -116 78 -211 130 -261
145 -26 8 -74 25 -108 39 -33 13 -116 33 -184 45 -69 12 -128 23 -133 26 -4 3
-8 98 -8 212 0 164 -3 213 -15 236 -19 36 -19 107 0 153 9 20 15 66 15 108 0
90 19 139 73 185 65 57 88 69 144 76 46 5 68 17 152 79 106 79 146 136 143
199 -13 240 -15 252 -32 276 -17 25 -35 72 -44 121 -3 14 -17 38 -31 53 -27
29 -49 107 -41 142 5 19 14 21 118 27 l113 7 73 -35 c41 -19 103 -40 140 -45
47 -8 76 -19 103 -40 25 -21 48 -30 73 -30 45 0 95 -20 120 -49 11 -11 31 -21
46 -21 37 0 91 -19 115 -41 11 -9 34 -20 50 -24 54 -12 90 -28 116 -52 15 -14
46 -29 70 -34 24 -5 55 -14 69 -21 14 -6 39 -17 55 -24 17 -8 57 -18 89 -24
32 -5 79 -21 102 -35 68 -40 254 -115 285 -115 26 0 143 44 163 62 6 4 18 8
29 8 10 0 36 18 58 40 22 22 45 40 52 40 7 0 29 11 50 26 21 14 54 31 75 38
21 8 69 34 107 58 39 25 94 58 124 73 29 14 63 36 76 48 43 43 124 107 134
107 6 0 25 13 43 29 18 15 49 36 68 46 19 10 50 31 68 46 18 16 37 29 43 29
10 0 43 25 139 105 26 22 76 63 110 90 103 82 291 248 355 315 33 34 85 79
116 100 30 21 71 56 89 77 18 21 65 67 104 101 39 35 118 108 176 163 158 149
260 239 271 239 10 0 144 116 274 236 44 41 91 81 105 91 34 23 138 110 176
147 17 17 51 43 75 58 24 15 91 69 149 120 124 109 161 138 215 166 22 12 51
33 64 47 13 14 28 25 33 25 6 0 26 14 45 30 18 17 55 41 81 54 26 14 70 41 97
60 28 19 73 47 100 62 28 14 59 35 70 45 11 10 40 25 63 33 24 9 56 24 71 35
15 11 46 27 69 36 23 10 51 29 63 43 16 20 32 27 79 33 47 5 68 14 95 38 30
26 44 31 89 31 38 0 58 5 67 17 19 22 88 53 121 53 15 0 62 14 105 31 79 32
152 53 233 69 25 5 65 18 90 29 62 27 118 35 166 22 51 -14 91 -3 145 41 l41
33 182 -4 c246 -6 539 -5 728 1 l157 6 45 -29 c63 -42 90 -48 204 -40 98 7
101 8 147 47 25 21 58 48 73 59 153 113 154 113 312 109 152 -3 216 -16 252
-51 16 -15 46 -37 67 -48 22 -11 66 -34 99 -51 33 -17 75 -43 94 -58 19 -14
38 -26 43 -26 4 0 25 -16 46 -35 22 -19 45 -35 52 -35 6 0 23 -9 37 -20 47
-38 155 -108 176 -114 21 -7 22 -4 23 108 2 107 8 153 44 314 l14 63 -41 28
c-23 15 -66 42 -96 60 -30 17 -75 47 -100 66 -25 19 -64 47 -88 62 -24 15 -60
42 -82 59 -21 17 -53 37 -71 44 -19 8 -48 24 -66 38 -60 44 -187 62 -458 62
-237 0 -241 -1 -283 -25z m-9442 -5557 c0 -10 55 -13 240 -13 185 0 240 3 240
13 0 16 5 16 128 -12 176 -40 279 -96 470 -252 107 -88 150 -133 195 -204 19
-30 44 -64 56 -74 35 -32 103 -166 132 -261 15 -49 37 -117 50 -150 21 -56 22
-76 22 -320 0 -226 -2 -266 -18 -305 -10 -25 -32 -88 -50 -141 -41 -121 -120
-237 -348 -516 -59 -72 -108 -154 -168 -283 -16 -36 -45 -96 -64 -135 -19 -38
-39 -89 -45 -112 -9 -35 -22 -52 -81 -97 -80 -63 -107 -71 -232 -71 -84 0 -90
2 -112 27 l-23 26 5 389 c2 213 6 407 9 430 7 60 34 87 115 118 56 22 77 36
100 68 34 47 37 84 8 121 -29 37 -71 56 -125 56 -41 0 -51 -5 -83 -38 -39 -42
-152 -132 -188 -151 -31 -16 -71 5 -114 61 -19 24 -38 45 -43 47 -5 2 -27 21
-47 42 -33 34 -44 39 -83 39 -38 0 -50 -5 -80 -36 -48 -49 -52 -75 -22 -139
25 -56 33 -60 127 -79 50 -10 52 -29 62 -471 11 -515 13 -466 -18 -492 -21
-19 -38 -23 -88 -22 -89 0 -142 12 -140 29 2 9 -23 31 -56 53 -77 50 -87 62
-120 148 -15 41 -40 92 -54 113 -15 21 -27 45 -27 52 0 8 -4 14 -9 14 -4 0
-36 48 -71 108 -78 134 -136 220 -203 298 -206 240 -227 279 -323 594 -37 121
-38 130 -39 280 0 155 0 155 32 220 18 36 37 95 43 131 11 73 108 292 153 345
15 17 43 54 64 81 118 158 297 307 466 390 126 62 357 114 357 81z m6 -1802
c7 -18 -13 -56 -29 -56 -7 0 -23 9 -36 21 -17 16 -20 24 -10 35 15 18 68 18
75 0z m499 -11 c0 -22 -31 -33 -47 -17 -17 17 -1 44 24 40 15 -2 23 -10 23
-23z m-269 -143 c6 -4 20 -23 30 -42 17 -32 19 -72 25 -455 4 -268 3 -428 -4
-442 -21 -46 -96 -54 -137 -13 -18 18 -19 36 -15 437 3 435 5 455 47 501 22
23 36 27 54 14z m44 -1142 c24 -24 25 -41 5 -80 -20 -38 -49 -53 -86 -45 -31
7 -69 55 -69 87 0 53 108 80 150 38z m4907 -3910 c7 0 24 -10 38 -22 l26 -23
-1 -4137 c0 -2275 -3 -4144 -6 -4153 -4 -8 -15 -20 -25 -25 -12 -7 -1537 -10
-4380 -10 -3906 0 -4365 1 -4386 15 -12 9 -23 23 -23 33 0 9 0 1875 0 4147 0
3303 2 4132 12 4142 41 39 -125 38 4398 36 2384 -2 4340 -3 4347 -3z m28433
-6330 c11 -6 59 -19 107 -29 48 -11 108 -26 133 -34 25 -8 81 -23 125 -35 44
-11 120 -32 170 -46 49 -14 102 -26 118 -26 15 0 45 -9 66 -20 22 -11 59 -22
83 -26 63 -9 199 -44 228 -59 14 -7 50 -16 80 -20 30 -4 77 -16 103 -26 27
-11 69 -24 95 -29 76 -17 100 -30 111 -60 12 -35 5 -64 -26 -110 -12 -19 -23
-45 -23 -57 0 -12 -13 -55 -30 -96 -16 -42 -30 -82 -30 -89 0 -20 -67 -96 -99
-113 -15 -7 -54 -21 -87 -29 -32 -8 -99 -31 -149 -51 -49 -20 -99 -40 -110
-44 -77 -31 -126 -60 -220 -131 -111 -85 -157 -110 -200 -110 -37 0 -89 24
-145 67 -52 40 -63 61 -121 218 -18 50 -39 97 -48 105 -9 8 -32 37 -51 63 -44
61 -96 124 -168 205 -101 113 -117 153 -88 223 7 19 16 77 20 129 9 139 24
189 65 217 37 25 62 29 91 13z"/>
<path d="M16075 32450 c-194 -13 -413 -41 -436 -56 -7 -4 -47 -13 -88 -19 -88
-14 -274 -67 -346 -100 -27 -12 -66 -26 -85 -30 -19 -4 -55 -18 -80 -30 -25
-12 -58 -25 -74 -29 -16 -4 -45 -18 -65 -32 -19 -13 -43 -24 -51 -24 -8 0 -33
-12 -55 -27 -22 -15 -78 -47 -125 -71 -46 -23 -98 -53 -115 -65 -16 -13 -73
-49 -125 -81 -52 -31 -117 -75 -145 -97 -27 -22 -81 -64 -120 -94 -98 -74
-429 -411 -510 -520 -38 -49 -78 -101 -90 -115 -12 -14 -39 -56 -60 -93 -21
-38 -48 -81 -60 -95 -13 -15 -49 -74 -80 -132 -31 -58 -61 -110 -66 -116 -5
-6 -18 -35 -28 -65 -11 -30 -35 -83 -55 -119 -20 -36 -36 -73 -36 -83 0 -10
-11 -39 -24 -65 -13 -26 -26 -67 -30 -91 -4 -24 -13 -55 -20 -70 -8 -15 -22
-56 -31 -91 -9 -36 -27 -88 -41 -116 -13 -28 -24 -66 -25 -85 0 -19 -7 -68
-15 -109 -42 -219 -47 -290 -47 -640 -1 -346 9 -495 38 -590 7 -25 16 -81 20
-125 4 -50 16 -101 31 -135 13 -30 28 -76 33 -101 6 -25 19 -66 29 -90 11 -24
25 -69 32 -99 17 -73 105 -278 190 -440 69 -133 82 -157 109 -190 16 -20 40
-58 55 -85 28 -52 33 -60 126 -184 30 -41 62 -83 70 -95 8 -12 18 -22 22 -24
3 -2 45 -50 93 -106 124 -149 426 -419 561 -501 18 -12 41 -28 52 -38 10 -9
24 -17 30 -17 6 0 31 -16 56 -35 26 -19 50 -35 55 -35 4 0 19 -8 32 -19 22
-17 82 -51 214 -121 28 -15 82 -39 120 -54 39 -16 83 -35 98 -43 15 -8 56 -23
90 -32 34 -10 80 -27 102 -38 22 -11 65 -26 95 -33 30 -7 74 -21 97 -31 23
-10 71 -23 105 -29 35 -6 113 -21 173 -35 205 -45 654 -76 809 -55 44 6 143
15 218 20 86 6 174 19 234 35 53 14 108 25 123 25 24 1 92 18 261 68 36 11 86
29 111 40 24 11 58 24 74 27 17 4 55 20 85 35 30 15 73 33 95 40 79 25 362
175 435 229 14 11 57 40 95 65 39 26 99 69 135 95 36 27 68 50 73 50 4 1 35
27 70 60 34 32 98 91 142 131 82 75 194 197 262 283 21 27 63 78 94 115 30 37
68 85 82 107 38 57 53 79 124 185 34 53 63 100 63 106 0 6 19 47 41 90 83 158
107 211 139 302 17 52 47 130 66 175 38 89 75 231 100 389 9 56 25 129 36 162
53 161 53 924 0 1076 -10 30 -25 93 -32 140 -15 104 -55 277 -80 345 -10 28
-35 95 -55 150 -21 55 -46 125 -57 155 -21 59 -25 68 -102 210 -29 52 -59 111
-66 130 -8 19 -33 61 -55 94 -22 32 -58 89 -80 126 -22 37 -57 87 -78 111 -21
24 -64 76 -94 114 -172 217 -445 483 -603 588 -30 20 -84 57 -120 82 -36 25
-76 53 -90 62 -14 9 -44 29 -66 44 -23 16 -52 33 -65 39 -13 6 -51 26 -84 45
-33 18 -76 41 -95 50 -55 25 -72 34 -115 60 -22 14 -50 25 -63 25 -12 0 -48
14 -79 30 -31 17 -63 30 -72 30 -9 0 -39 11 -68 24 -28 13 -77 30 -110 36 -32
7 -71 19 -86 27 -25 12 -87 26 -357 77 -47 9 -103 16 -125 16 -22 0 -58 5 -80
9 -58 13 -449 20 -590 11z m595 -314 c25 -4 79 -14 120 -21 41 -8 116 -22 165
-30 194 -35 468 -128 663 -224 56 -28 106 -51 111 -51 4 0 27 -13 49 -30 23
-16 46 -30 51 -30 5 0 31 -15 57 -33 27 -18 56 -36 64 -40 8 -4 42 -27 75 -52
33 -24 78 -56 100 -71 85 -58 325 -263 396 -339 92 -99 262 -304 286 -345 15
-25 41 -63 58 -85 18 -22 42 -58 54 -80 12 -22 35 -62 51 -90 16 -27 46 -79
65 -115 19 -36 39 -72 45 -80 22 -36 112 -272 140 -367 9 -34 25 -74 34 -88
10 -15 24 -59 32 -98 9 -40 24 -106 34 -147 29 -114 43 -314 43 -635 1 -334
-14 -541 -47 -658 -13 -45 -26 -103 -30 -129 -3 -27 -16 -69 -29 -95 -14 -27
-28 -66 -31 -87 -4 -22 -18 -60 -31 -85 -12 -26 -26 -62 -30 -81 -4 -19 -20
-59 -35 -90 -15 -30 -31 -66 -35 -80 -4 -14 -15 -36 -25 -50 -9 -14 -39 -65
-65 -115 -94 -173 -110 -201 -148 -250 -21 -28 -60 -81 -86 -118 -159 -224
-514 -560 -766 -724 -204 -133 -256 -163 -282 -163 -11 0 -37 -13 -59 -30 -21
-16 -44 -30 -50 -30 -7 0 -36 -13 -66 -28 -30 -16 -67 -32 -84 -36 -16 -4 -47
-16 -69 -26 -69 -33 -187 -72 -275 -90 -47 -10 -119 -28 -160 -39 -187 -52
-520 -75 -875 -60 -105 5 -145 10 -350 45 -206 36 -513 132 -655 204 -21 11
-45 20 -53 20 -7 0 -34 13 -59 29 -25 16 -56 32 -68 36 -30 10 -276 162 -355
220 -33 24 -65 44 -71 44 -5 1 -39 28 -75 62 -35 33 -91 81 -124 106 -33 24
-76 64 -95 88 -19 23 -57 62 -84 85 -27 23 -63 60 -80 82 -17 22 -52 63 -77
91 -58 65 -162 206 -214 292 -22 36 -52 82 -67 102 -16 19 -28 40 -28 46 0 10
-65 144 -130 265 -21 40 -46 99 -54 132 -9 33 -24 77 -35 99 -35 69 -92 261
-101 339 -4 42 -15 96 -24 120 -32 89 -37 164 -37 546 0 379 7 485 36 568 8
24 22 89 30 145 8 57 23 120 33 140 11 21 27 64 36 95 9 32 25 72 35 90 10 18
22 51 26 73 8 47 61 179 86 216 10 14 31 50 46 80 16 30 34 63 41 74 7 11 17
31 22 45 6 14 29 52 51 85 22 33 47 73 57 89 39 65 88 134 146 204 34 40 75
91 93 114 54 67 206 222 248 253 22 16 65 52 96 80 30 27 84 71 120 98 91 67
317 217 328 217 5 0 22 10 38 23 28 23 211 117 228 117 4 0 16 7 26 16 10 9
37 20 61 25 24 6 72 23 108 39 149 66 473 144 745 178 74 9 623 8 685 -2z"/>
<path d="M16095 31820 c-60 -4 -153 -15 -205 -24 -52 -9 -120 -21 -150 -25
-30 -5 -84 -18 -120 -29 -36 -11 -92 -27 -125 -35 -75 -19 -206 -66 -221 -78
-7 -5 -40 -21 -74 -34 -35 -14 -70 -31 -79 -38 -9 -8 -36 -21 -61 -29 -25 -8
-62 -26 -82 -39 -20 -13 -59 -37 -87 -54 -28 -16 -81 -52 -119 -78 -37 -26
-78 -56 -92 -65 -80 -54 -163 -129 -180 -163 -20 -38 -20 -70 -18 -2051 l3
-2013 22 -42 c13 -23 31 -44 40 -47 10 -3 38 -25 63 -49 109 -104 362 -255
603 -360 218 -96 336 -134 532 -170 44 -9 107 -21 140 -27 239 -47 624 -49
805 -5 30 7 88 16 128 19 40 4 108 17 150 30 42 13 109 33 147 44 174 50 341
123 580 255 109 60 213 126 260 167 29 25 72 58 94 75 23 16 50 44 61 63 20
33 20 59 20 2064 l0 2031 -25 39 c-23 34 -59 64 -188 156 -21 15 -59 43 -85
62 -25 19 -63 43 -84 55 -21 11 -71 39 -111 61 -39 23 -83 45 -96 49 -12 4
-39 18 -59 31 -19 14 -47 27 -61 31 -14 3 -40 14 -58 25 -18 10 -60 27 -95 38
-35 10 -88 27 -118 38 -98 36 -387 101 -452 102 -20 0 -47 4 -60 9 -33 13
-411 20 -543 11z m330 -111 c39 -5 140 -16 225 -23 106 -10 180 -22 235 -39
44 -14 102 -28 130 -32 27 -4 66 -15 86 -26 21 -10 59 -23 86 -29 26 -6 73
-22 103 -36 152 -72 399 -199 440 -226 185 -127 234 -165 265 -207 l25 -35 0
-1974 0 -1974 -21 -29 c-25 -35 -141 -129 -228 -184 -29 -18 -136 -83 -181
-109 -38 -22 -122 -64 -265 -131 -54 -26 -199 -77 -260 -91 -33 -8 -98 -26
-145 -39 -47 -13 -125 -29 -175 -35 -49 -6 -135 -17 -190 -25 -114 -17 -356
-19 -460 -5 -251 34 -324 46 -440 76 -141 36 -313 94 -351 119 -13 8 -29 15
-37 15 -7 0 -58 23 -113 51 -54 28 -121 62 -147 75 -66 34 -188 115 -260 173
-23 19 -59 44 -79 57 -74 47 -68 -135 -68 2055 l0 1973 22 32 c41 56 247 209
363 269 44 23 89 46 100 52 28 15 157 76 236 111 37 17 82 33 100 37 18 4 54
16 79 27 25 11 92 31 150 44 58 13 118 29 133 35 16 7 47 13 70 14 60 3 272
25 337 34 79 12 155 12 235 0z"/>
<path d="M29390 44942 c0 -68 -28 -221 -47 -257 -8 -16 -21 -57 -27 -91 l-12
-60 65 -18 c67 -18 72 -20 126 -57 22 -15 41 -19 72 -16 37 4 45 1 74 -29 29
-30 39 -34 87 -34 37 0 69 -7 101 -24 26 -12 65 -29 86 -35 43 -13 69 -23 187
-70 53 -21 93 -31 131 -31 48 0 60 -4 97 -35 37 -31 48 -35 98 -35 37 0 82 -9
127 -26 39 -15 86 -32 105 -39 26 -9 136 -13 419 -13 361 0 387 1 422 19 21
10 53 19 72 19 41 0 93 17 129 42 32 22 114 24 142 3 26 -19 71 -19 137 1 87
26 129 46 149 71 21 27 60 30 96 6 23 -14 64 -16 359 -16 l334 0 36 -34 c32
-30 41 -33 95 -33 47 0 74 -7 118 -29 31 -15 75 -34 97 -41 22 -7 81 -32 130
-55 50 -23 104 -46 120 -49 17 -4 41 -17 55 -30 14 -12 54 -39 90 -60 36 -21
97 -59 135 -84 39 -25 86 -55 105 -67 58 -35 112 -73 160 -110 25 -19 63 -47
85 -62 22 -15 55 -40 73 -55 18 -15 38 -28 45 -28 8 0 26 -13 42 -30 16 -16
33 -30 38 -30 6 0 31 -13 56 -28 25 -16 60 -33 78 -40 18 -6 45 -24 60 -41 15
-16 42 -38 59 -48 97 -56 132 -79 159 -104 17 -15 44 -31 60 -35 17 -3 50 -19
75 -34 25 -15 70 -35 101 -44 30 -8 72 -27 92 -40 30 -21 51 -25 129 -29 54
-2 128 -14 177 -27 75 -21 89 -22 130 -11 87 25 355 51 536 53 147 1 311 -33
369 -77 17 -13 49 -27 71 -31 22 -4 54 -19 72 -35 17 -15 62 -44 100 -65 37
-20 91 -54 118 -75 28 -21 65 -48 82 -61 17 -13 58 -43 90 -68 32 -24 73 -52
92 -62 64 -33 503 -475 538 -543 9 -16 32 -49 52 -71 89 -102 154 -187 173
-226 11 -24 32 -56 45 -73 44 -54 133 -178 133 -186 0 -13 76 -123 99 -144 24
-21 111 -156 111 -171 0 -6 18 -28 40 -49 22 -21 40 -44 40 -50 0 -6 13 -26
29 -44 16 -18 32 -47 35 -65 4 -18 20 -45 36 -61 17 -16 30 -33 30 -37 0 -5
16 -31 35 -59 19 -28 39 -68 45 -88 5 -21 21 -48 35 -61 14 -13 25 -31 25 -40
0 -9 16 -33 35 -53 19 -20 35 -39 35 -44 0 -4 18 -33 40 -64 22 -32 40 -61 40
-66 0 -4 27 -46 60 -93 33 -47 72 -107 87 -133 16 -27 40 -65 56 -84 15 -20
27 -42 27 -50 0 -16 69 -121 112 -171 15 -18 28 -38 28 -44 0 -6 11 -25 24
-42 57 -76 57 -73 54 -376 -2 -241 -5 -281 -18 -285 -8 -2 -45 -9 -82 -15 -66
-10 -298 -89 -323 -110 -7 -6 -43 -26 -81 -45 -155 -79 -370 -289 -465 -452
-98 -170 -134 -258 -164 -403 -9 -41 -29 -102 -45 -135 -37 -78 -48 -122 -56
-225 -9 -120 8 -218 55 -315 22 -44 42 -102 46 -130 9 -67 72 -199 122 -257
22 -26 55 -72 73 -104 18 -31 62 -91 97 -133 58 -69 107 -139 205 -291 52 -81
103 -187 123 -255 28 -100 150 -246 255 -308 41 -23 58 -26 173 -30 104 -4
132 -8 148 -22 28 -27 24 -71 -10 -106 -31 -31 -62 -36 -118 -20 -42 12 -73 4
-73 -20 0 -24 46 -44 75 -31 11 4 171 7 356 5 296 -3 338 -1 350 13 20 24 -5
34 -78 33 -70 -2 -109 16 -119 55 -17 69 17 86 172 91 90 3 124 8 156 23 l40
21 62 -64 c33 -34 90 -97 125 -139 119 -143 388 -403 451 -436 14 -7 48 -36
75 -64 28 -28 91 -85 140 -126 50 -41 93 -78 96 -83 3 -5 9 -63 13 -130 3 -67
9 -136 12 -152 6 -30 5 -30 -83 -63 -48 -18 -180 -53 -293 -78 -167 -37 -252
-50 -460 -69 -595 -55 -696 -56 -1245 -10 -304 25 -378 37 -655 100 -264 61
-499 179 -547 275 -45 88 -26 168 60 257 64 67 59 81 -14 34 -55 -36 -105 -87
-118 -124 -15 -40 -14 -162 3 -200 17 -40 115 -134 181 -172 78 -46 235 -114
300 -131 33 -8 94 -26 135 -39 79 -26 319 -78 463 -100 28 -5 37 -11 37 -25 0
-20 12 -20 720 -20 700 0 720 1 720 19 0 21 19 31 56 31 40 0 374 69 454 95
41 12 106 31 144 40 38 10 95 30 127 46 32 16 60 29 63 29 3 0 6 -26 6 -58 0
-56 28 -161 50 -187 6 -7 16 -56 24 -108 10 -73 19 -106 39 -134 14 -21 28
-56 32 -78 12 -75 15 -83 48 -123 25 -29 36 -54 40 -90 3 -28 17 -65 31 -87
14 -21 26 -45 26 -55 0 -9 24 -42 54 -73 l54 -57 214 0 c177 0 217 3 236 16
12 8 22 21 22 27 0 7 -36 73 -80 147 -44 74 -80 139 -80 145 0 6 -12 27 -26
48 -14 21 -34 62 -43 91 -10 28 -28 71 -40 94 -11 23 -26 65 -32 94 -7 29 -25
78 -41 108 -21 41 -31 78 -37 138 -5 47 -16 93 -25 107 -27 41 -46 150 -46
270 -1 181 -14 276 -50 348 -35 68 -94 135 -155 176 -22 14 -56 41 -75 60 -19
18 -65 56 -102 85 -200 153 -574 500 -625 581 -15 25 -31 45 -36 45 -18 0 -95
-56 -133 -96 -22 -24 -48 -44 -57 -44 -23 0 -22 37 2 77 11 17 25 51 31 75 5
24 17 66 25 93 8 28 17 66 20 86 8 53 82 165 296 451 81 108 155 211 164 227
8 17 26 47 40 66 13 20 29 62 36 93 6 31 23 100 37 152 22 82 25 122 29 295 4
208 -1 258 -61 525 -32 145 -179 383 -330 538 -214 220 -444 341 -743 392 -70
12 -130 24 -132 26 -11 11 3 129 26 214 20 76 26 127 30 256 l6 161 -38 67
c-20 36 -41 68 -46 72 -13 8 -119 141 -119 150 0 4 -16 26 -35 50 -19 23 -35
46 -35 51 0 5 -29 51 -65 103 -36 52 -78 114 -93 138 -60 94 -103 159 -130
197 -15 22 -35 61 -45 86 -10 25 -31 58 -47 74 -17 16 -30 33 -30 39 0 5 -8
19 -18 30 -10 12 -25 37 -32 56 -7 19 -25 49 -40 65 -15 17 -34 47 -41 68 -8
22 -28 56 -46 77 -18 21 -33 42 -33 47 0 5 -11 20 -25 33 -14 13 -31 43 -36
66 -6 23 -24 55 -40 70 -16 15 -29 32 -29 37 0 6 -10 24 -23 41 -12 17 -33 51
-46 76 -13 25 -34 56 -47 71 -13 14 -24 28 -24 32 0 3 -18 32 -40 63 -22 32
-40 63 -40 70 0 6 -19 38 -43 71 -24 32 -51 69 -60 83 -88 130 -152 219 -181
250 -13 14 -43 54 -66 90 -24 36 -71 94 -105 130 -34 36 -86 97 -115 135 -58
78 -317 336 -395 395 -27 21 -79 65 -115 99 -36 33 -101 86 -145 116 -44 31
-107 76 -140 101 -33 24 -80 54 -104 65 -24 12 -64 36 -88 55 -25 19 -50 34
-57 34 -7 0 -30 13 -52 29 -21 15 -57 34 -79 41 -22 7 -53 23 -68 36 -26 22
-84 44 -117 44 -8 0 -35 12 -60 26 -73 42 -194 50 -515 33 -496 -26 -723 -13
-808 44 -21 14 -55 28 -77 32 -23 4 -53 17 -68 30 -15 12 -50 33 -77 47 -28
13 -77 44 -109 68 -65 50 -66 51 -183 128 -45 29 -87 60 -94 68 -6 8 -16 14
-21 14 -6 0 -32 16 -58 35 -26 19 -51 35 -54 35 -4 0 -29 17 -55 38 -27 20
-72 53 -101 72 -28 19 -66 47 -83 61 -18 15 -57 41 -87 60 -30 18 -81 52 -112
75 -31 24 -76 53 -100 65 -24 12 -62 35 -86 51 -23 16 -57 34 -75 40 -17 7
-49 24 -69 39 -21 15 -55 30 -75 34 -21 3 -63 19 -93 34 -30 16 -80 34 -110
41 -30 6 -95 26 -145 44 l-90 31 -570 -1 -570 -2 -130 -31 c-71 -18 -179 -36
-240 -41 -60 -5 -139 -15 -175 -22 -98 -18 -447 -15 -538 6 -40 9 -100 16
-132 16 -68 0 -177 21 -235 46 -22 9 -74 21 -115 25 -49 6 -94 19 -130 38 -30
16 -78 33 -106 39 -27 6 -79 25 -114 41 -36 17 -77 31 -91 31 -14 0 -52 14
-83 30 -31 17 -78 33 -104 36 -26 4 -70 19 -99 35 -28 15 -80 33 -115 38 -34
6 -74 19 -88 29 -50 36 -50 36 -50 -16z m10366 -6036 c135 -28 148 -32 259
-87 151 -74 387 -271 442 -368 14 -25 41 -62 58 -81 43 -47 111 -173 126 -235
7 -27 28 -90 47 -140 l35 -90 3 -210 c4 -243 -6 -344 -40 -419 -14 -30 -32
-80 -40 -111 -21 -80 -83 -172 -304 -449 -53 -66 -114 -154 -135 -195 -21 -41
-48 -84 -61 -96 -12 -12 -31 -43 -41 -71 -11 -27 -29 -65 -41 -85 -12 -19 -29
-57 -38 -83 -25 -74 -32 -82 -91 -118 -39 -23 -55 -39 -55 -54 0 -26 -18 -32
-121 -40 -85 -7 -141 6 -163 37 -11 17 -13 88 -9 407 2 213 6 407 9 431 7 58
43 94 116 115 43 12 65 26 92 58 50 58 49 97 -3 149 -36 36 -43 39 -96 39 -53
0 -60 -3 -94 -38 -39 -42 -152 -132 -188 -151 -33 -17 -53 -3 -154 100 -84 86
-88 89 -132 89 -40 0 -51 -5 -81 -36 -46 -48 -51 -74 -24 -135 23 -55 59 -79
117 -79 21 0 35 -7 45 -22 21 -33 37 -138 35 -221 -2 -40 -2 -214 0 -387 l3
-315 -28 -24 c-27 -22 -34 -23 -120 -18 -110 6 -142 20 -216 90 -39 37 -60 67
-72 102 -49 142 -236 479 -317 569 -45 51 -191 230 -218 267 -20 29 -80 165
-98 224 -8 28 -32 102 -51 165 -36 111 -37 120 -37 270 0 154 0 155 31 215 18
34 36 89 42 128 18 114 107 292 211 423 203 253 423 409 651 463 52 12 103 25
113 27 12 4 17 0 17 -14 0 -16 5 -19 28 -16 15 3 113 7 217 11 146 4 192 9
198 19 11 19 36 18 173 -10z m-560 -1800 c7 -18 -13 -56 -29 -56 -7 0 -23 9
-36 21 -17 16 -20 24 -10 35 15 18 68 18 75 0z m499 -11 c0 -22 -31 -33 -47
-17 -17 17 -1 44 24 40 15 -2 23 -10 23 -23z m-269 -143 c6 -4 20 -23 30 -42
17 -32 19 -72 25 -455 4 -268 3 -428 -4 -442 -21 -47 -96 -54 -138 -12 -19 19
-20 30 -17 442 3 393 4 424 22 457 28 52 56 70 82 52z m44 -1142 c24 -24 25
-41 5 -80 -20 -38 -49 -53 -86 -45 -31 7 -69 55 -69 87 0 53 108 80 150 38z"/>
<path d="M27993 43098 c-47 -24 -54 -42 -22 -59 27 -14 76 -4 109 21 20 16 23
22 14 37 -16 25 -52 26 -101 1z"/>
<path d="M27427 43103 c-14 -13 -6 -42 15 -57 46 -32 91 -9 68 34 -14 26 -66
41 -83 23z"/>
<path d="M27512 42998 c-7 -7 -12 -36 -12 -66 0 -46 4 -58 29 -81 15 -14 48
-58 73 -96 52 -81 109 -135 142 -135 32 0 112 73 140 129 13 25 42 61 65 79
35 28 41 38 41 71 0 21 -5 53 -11 70 -11 31 -14 32 -48 27 -20 -4 -99 -9 -176
-12 -116 -5 -147 -3 -179 10 -46 19 -49 19 -64 4z"/>
<path d="M29390 42733 c0 -3 15 -22 33 -43 17 -20 40 -47 50 -59 10 -12 22
-19 27 -16 21 13 8 45 -31 78 -37 32 -79 53 -79 40z"/>
<path d="M26029 42691 c-55 -36 -105 -87 -118 -124 -15 -40 -14 -162 3 -200
17 -40 115 -134 181 -172 78 -46 235 -114 300 -131 33 -8 94 -26 135 -39 79
-26 319 -78 463 -100 28 -5 37 -11 37 -25 0 -20 12 -20 720 -20 700 0 720 1
720 19 0 21 19 31 56 31 40 0 374 69 454 95 41 12 106 31 145 40 38 10 86 26
105 35 19 10 75 37 124 61 49 23 106 59 128 80 34 32 39 42 36 75 -4 48 -28
56 -59 20 -76 -88 -248 -158 -554 -228 -187 -42 -258 -53 -475 -73 -595 -55
-697 -56 -1245 -10 -304 25 -378 37 -655 100 -264 61 -499 179 -547 275 -45
88 -26 168 60 257 64 67 59 81 -14 34z"/>
<path d="M26912 42587 c-38 -40 -25 -95 28 -122 l29 -15 -5 67 c-9 104 -14
111 -52 70z"/>
<path d="M28546 42601 c-4 -6 -9 -40 -13 -76 -5 -56 -4 -65 11 -65 22 0 54 34
62 66 10 38 -43 104 -60 75z"/>
<path d="M27420 42580 c-38 -38 -13 -94 39 -88 20 2 27 9 29 32 8 71 -25 99
-68 56z"/>
<path d="M27990 42580 c-15 -28 -16 -78 -2 -92 16 -16 60 -1 78 27 13 21 14
28 2 52 -17 36 -62 44 -78 13z"/>
<path d="M34755 41554 c-145 -24 -276 -88 -367 -179 -78 -78 -121 -149 -161
-262 -27 -77 -31 -105 -35 -220 -5 -163 11 -248 74 -372 78 -156 218 -269 394
-317 91 -25 310 -26 400 -1 225 60 378 212 452 447 20 65 23 95 23 225 -1 138
-3 157 -28 230 -76 217 -237 373 -443 430 -59 16 -253 28 -309 19z m308 -267
c120 -59 191 -156 223 -305 18 -85 17 -139 -1 -227 -32 -151 -122 -268 -243
-317 -48 -19 -75 -23 -177 -23 -156 0 -213 21 -300 109 -67 68 -98 123 -121
224 -19 79 -14 209 10 289 23 72 91 170 151 216 77 58 149 77 276 74 99 -2
110 -4 182 -40z"/>
<path d="M32900 40870 l0 -660 125 0 125 0 0 446 0 446 347 -446 347 -446 78
0 78 0 0 660 0 660 -125 0 -125 0 -2 -405 -3 -404 -319 404 -319 405 -104 0
-103 0 0 -660z"/>
<path d="M35740 40870 l0 -660 120 0 120 0 0 220 0 220 123 0 124 0 189 -219
189 -220 153 0 c83 -1 152 2 152 7 -1 4 -91 108 -201 232 -163 183 -196 226
-182 232 107 39 141 57 184 96 135 121 167 348 75 530 -28 55 -115 141 -174
171 -92 47 -134 51 -514 51 l-358 0 0 -660z m711 418 c57 -19 90 -49 115 -102
41 -87 27 -183 -36 -246 -54 -54 -89 -60 -334 -60 l-216 0 0 210 0 210 219 0
c138 0 230 -4 252 -12z"/>
<path d="M36990 40870 l0 -661 328 3 c364 5 387 8 520 75 130 65 234 189 287
341 22 63 28 101 32 208 7 161 -10 247 -69 365 -71 143 -183 240 -340 297 -73
26 -75 26 -415 30 l-343 3 0 -661z m682 401 c80 -31 160 -107 198 -186 101
-213 30 -493 -149 -585 -78 -39 -146 -50 -323 -50 l-168 0 0 426 0 426 193 -4
c170 -4 198 -7 249 -27z"/>
<path d="M28203 41126 c-215 -52 -343 -224 -343 -461 0 -142 41 -247 129 -336
95 -95 212 -135 367 -127 108 6 181 32 264 95 l60 45 0 174 0 174 -195 0 -195
0 0 -30 0 -30 160 0 160 0 0 -129 0 -130 -33 -25 c-196 -150 -503 -85 -607
128 -100 204 -23 465 163 555 149 73 330 56 460 -43 34 -26 34 -26 52 -6 18
20 18 21 -4 44 -32 34 -127 83 -196 101 -70 18 -170 18 -242 1z"/>
<path d="M30931 41124 c-172 -37 -292 -151 -337 -319 -33 -121 -11 -295 49
-398 72 -122 235 -207 398 -207 103 0 234 46 307 108 l33 27 -23 22 -24 23
-48 -35 c-77 -55 -143 -75 -245 -75 -93 0 -160 17 -221 56 -128 81 -198 251
-171 415 35 210 176 329 392 329 103 0 174 -22 246 -77 l46 -35 20 21 21 21
-23 24 c-55 59 -214 117 -316 115 -22 0 -69 -7 -104 -15z"/>
<path d="M27330 41103 c-21 -46 -361 -805 -381 -850 l-18 -43 37 0 38 0 50
113 50 112 273 0 273 0 50 -112 51 -113 38 0 38 0 -48 108 c-26 59 -119 266
-206 460 l-158 352 -37 0 c-30 0 -39 -5 -50 -27z m175 -331 c63 -144 115 -264
115 -267 0 -3 -110 -5 -244 -5 l-244 0 121 275 c67 151 125 271 129 267 4 -4
59 -125 123 -270z"/>
<path d="M28867 41123 c-4 -3 -7 -210 -7 -460 l0 -453 325 0 325 0 0 35 0 35
-290 0 -290 0 0 180 0 180 270 0 270 0 0 30 0 30 -270 0 -270 0 0 180 0 180
286 0 285 0 -3 33 -3 32 -311 3 c-171 1 -313 -1 -317 -5z"/>
<path d="M29700 40671 l0 -461 30 0 30 0 0 376 c0 239 4 373 10 369 5 -3 145
-172 312 -375 166 -204 308 -370 315 -370 10 0 13 89 13 461 l0 460 -32 -3
-33 -3 -5 -373 -5 -373 -304 373 c-167 205 -310 374 -317 376 -12 3 -14 -71
-14 -457z"/>
<path d="M31547 41123 c-4 -3 -7 -210 -7 -460 l0 -453 325 0 325 0 0 35 0 35
-290 0 -290 0 0 180 0 180 270 0 270 0 0 30 0 30 -270 0 -270 0 0 180 0 180
286 0 285 0 -3 33 -3 32 -311 3 c-171 1 -313 -1 -317 -5z"/>
<path d="M27833 38211 c-184 -30 -317 -111 -375 -230 -17 -34 -24 -68 -26
-133 -5 -120 14 -181 79 -252 81 -89 188 -131 406 -161 252 -35 344 -97 331
-220 -12 -103 -106 -165 -265 -173 -191 -10 -326 52 -402 186 -9 15 -18 13
-93 -25 -130 -66 -125 -60 -93 -123 38 -76 126 -160 205 -197 96 -46 189 -63
335 -63 149 0 240 18 341 66 163 77 248 248 215 428 -38 206 -171 292 -535
346 -163 24 -235 51 -266 102 -23 39 -25 76 -6 122 32 76 150 123 286 113 99
-7 177 -37 240 -94 l52 -47 94 47 c52 26 94 52 94 58 0 20 -60 98 -103 133
-53 43 -152 89 -227 105 -74 16 -223 22 -287 12z"/>
<path d="M23855 38194 c-145 -24 -276 -88 -367 -179 -78 -78 -121 -149 -161
-262 -27 -77 -31 -105 -35 -220 -5 -163 11 -248 74 -372 78 -156 218 -269 394
-317 91 -25 310 -26 400 -1 225 60 378 212 452 447 20 65 23 95 23 225 -1 138
-3 157 -28 230 -76 217 -237 373 -443 430 -59 16 -253 28 -309 19z m308 -267
c120 -59 191 -156 223 -305 18 -85 17 -139 -1 -227 -32 -151 -122 -268 -243
-317 -48 -19 -75 -23 -177 -23 -156 0 -213 21 -300 109 -67 68 -98 123 -121
224 -19 79 -14 209 10 289 23 72 91 170 151 216 77 58 149 77 276 74 99 -2
110 -4 182 -40z"/>
<path d="M26230 37515 l0 -665 495 0 496 0 -3 123 -3 122 -372 3 -373 2 0 145
0 145 360 0 360 0 0 115 0 115 -357 2 -358 3 -3 152 -3 153 373 2 373 3 0 120
0 120 -492 3 -493 2 0 -665z"/>
<path d="M28620 38065 l0 -115 210 0 210 0 0 -550 0 -550 120 0 120 0 0 550 0
550 210 0 210 0 0 115 0 115 -540 0 -540 0 0 -115z"/>
<path d="M24823 37728 c3 -384 6 -451 21 -502 57 -193 186 -324 376 -380 84
-26 240 -31 330 -12 170 36 296 128 364 268 62 125 66 162 66 641 l0 427 -120
0 -120 0 0 -367 c0 -203 -5 -406 -10 -452 -24 -207 -142 -310 -345 -299 -140
7 -226 65 -284 188 l-26 55 -3 438 -3 437 -125 0 -125 0 4 -442z"/>
<path d="M18543 37766 c-215 -52 -343 -224 -343 -461 0 -142 41 -247 129 -336
95 -95 212 -135 367 -127 108 6 181 32 264 95 l60 45 0 174 0 174 -195 0 -195
0 0 -30 0 -30 160 0 160 0 0 -129 0 -130 -33 -25 c-196 -150 -503 -85 -607
128 -100 204 -23 465 163 555 149 73 330 56 460 -43 34 -26 34 -26 52 -6 18
20 18 21 -4 44 -32 34 -127 83 -196 101 -70 18 -170 18 -242 1z"/>
<path d="M21271 37764 c-172 -37 -292 -151 -337 -319 -33 -121 -11 -295 49
-398 72 -122 235 -207 398 -207 103 0 234 46 307 108 l33 27 -23 22 -24 23
-48 -35 c-77 -55 -143 -75 -245 -75 -93 0 -160 17 -221 56 -128 81 -198 251
-171 415 35 210 176 329 392 329 103 0 174 -22 246 -77 l46 -35 20 21 21 21
-23 24 c-55 59 -214 117 -316 115 -22 0 -69 -7 -104 -15z"/>
<path d="M17661 37728 c-10 -24 -94 -212 -186 -418 -92 -206 -176 -394 -186
-417 l-18 -43 37 0 38 0 50 113 50 112 273 0 273 0 50 -112 51 -113 38 0 38 0
-48 108 c-26 59 -119 266 -206 460 l-158 352 -39 0 c-36 0 -40 -3 -57 -42z
m184 -316 c63 -144 115 -264 115 -267 0 -3 -110 -5 -244 -5 l-244 0 113 253
c62 139 116 264 120 276 4 13 11 19 16 14 5 -5 60 -126 124 -271z"/>
<path d="M19217 37763 c-4 -3 -7 -210 -7 -460 l0 -453 325 0 325 0 0 35 0 35
-290 0 -290 0 0 180 0 180 270 0 270 0 0 30 0 30 -270 0 -270 0 0 180 0 180
286 0 285 0 -3 33 -3 32 -311 3 c-171 1 -313 -1 -317 -5z"/>
<path d="M20050 37311 l0 -461 30 0 30 0 0 376 c0 239 4 373 10 369 5 -3 145
-172 312 -375 166 -204 308 -370 315 -370 10 0 13 89 13 461 l0 460 -32 -3
-33 -3 -5 -373 -5 -373 -304 373 c-167 205 -310 374 -317 376 -12 3 -14 -71
-14 -457z"/>
<path d="M21887 37763 c-4 -3 -7 -210 -7 -460 l0 -453 325 0 325 0 0 35 0 35
-290 0 -290 0 0 180 0 180 270 0 270 0 0 30 0 30 -270 0 -270 0 0 180 0 180
286 0 285 0 -3 33 -3 32 -311 3 c-171 1 -313 -1 -317 -5z"/>
<path d="M15943 36908 c-47 -24 -54 -42 -22 -59 27 -14 76 -4 109 21 20 16 23
22 14 37 -16 25 -52 26 -101 1z"/>
<path d="M15377 36913 c-14 -13 -6 -42 15 -57 29 -20 64 -20 72 0 8 22 9 21
-16 44 -21 20 -58 27 -71 13z"/>
<path d="M15462 36808 c-7 -7 -12 -36 -12 -66 0 -46 4 -58 29 -81 15 -14 48
-58 73 -96 52 -81 109 -135 142 -135 32 0 112 73 140 129 13 25 42 61 65 79
35 28 41 38 41 71 0 21 -5 53 -11 70 -11 31 -14 32 -48 27 -20 -4 -99 -9 -176
-12 -116 -5 -147 -3 -179 10 -46 19 -49 19 -64 4z"/>
<path d="M17340 36543 c0 -3 15 -22 33 -43 17 -20 40 -47 50 -59 10 -12 22
-19 27 -16 21 13 8 45 -31 78 -37 32 -79 53 -79 40z"/>
<path d="M13979 36501 c-55 -36 -105 -87 -118 -124 -15 -40 -14 -162 3 -200
17 -40 115 -134 181 -172 78 -46 235 -114 300 -131 33 -8 94 -26 135 -39 79
-26 319 -78 463 -100 28 -5 37 -11 37 -25 0 -20 12 -20 720 -20 700 0 720 1
720 19 0 21 19 31 56 31 40 0 374 69 454 95 41 12 106 31 145 40 38 10 86 26
105 35 19 10 75 37 124 61 49 23 106 59 128 80 34 32 39 42 36 75 -4 48 -28
56 -59 20 -76 -88 -248 -158 -554 -228 -187 -42 -258 -53 -475 -73 -595 -55
-697 -56 -1245 -10 -304 25 -378 37 -655 100 -264 61 -499 179 -547 275 -45
88 -26 168 60 257 64 67 59 81 -14 34z"/>
<path d="M14862 36397 c-38 -40 -25 -95 28 -122 l29 -15 -5 67 c-9 104 -14
111 -52 70z"/>
<path d="M16496 36411 c-4 -6 -9 -40 -13 -76 -5 -56 -4 -65 11 -65 22 0 54 34
62 66 10 38 -43 104 -60 75z"/>
<path d="M15370 36390 c-38 -38 -13 -94 39 -88 20 2 27 9 29 32 8 71 -25 99
-68 56z"/>
<path d="M15940 36390 c-15 -28 -16 -78 -2 -92 16 -16 60 -1 78 27 13 21 14
28 2 52 -17 36 -62 44 -78 13z"/>
<path d="M35973 35651 c-184 -30 -317 -111 -375 -230 -17 -34 -24 -68 -26
-133 -5 -120 14 -181 79 -252 81 -89 188 -131 406 -161 252 -35 344 -97 331
-220 -12 -103 -106 -165 -265 -173 -191 -10 -326 52 -402 186 -9 15 -18 13
-93 -25 -130 -66 -125 -60 -93 -123 38 -76 126 -160 205 -197 96 -46 189 -63
335 -63 149 0 240 18 341 66 163 77 248 248 215 428 -38 206 -171 292 -535
346 -163 24 -235 51 -266 102 -23 39 -25 76 -6 122 32 76 150 123 286 113 99
-7 177 -37 240 -94 l52 -47 94 47 c52 26 94 52 94 58 0 20 -60 98 -103 133
-53 43 -152 89 -227 105 -74 16 -223 22 -287 12z"/>
<path d="M34360 34955 l0 -665 495 0 496 0 -3 123 -3 122 -372 3 -373 2 0 145
0 145 360 0 360 0 0 115 0 115 -357 2 -358 3 -3 152 -3 153 373 2 373 3 0 120
0 120 -492 3 -493 2 0 -665z"/>
<path d="M36760 35505 l0 -115 210 0 210 0 0 -550 0 -550 120 0 120 0 0 550 0
550 210 0 210 0 0 115 0 115 -540 0 -540 0 0 -115z"/>
<path d="M39663 35538 c-47 -24 -54 -42 -22 -59 27 -14 76 -4 109 21 20 16 23
22 14 37 -16 25 -52 26 -101 1z"/>
<path d="M39097 35543 c-14 -13 -6 -42 15 -57 46 -32 91 -9 68 34 -14 26 -66
41 -83 23z"/>
<path d="M39182 35438 c-7 -7 -12 -36 -12 -66 0 -46 4 -58 29 -81 15 -14 48
-58 73 -96 52 -81 109 -135 142 -135 32 0 112 73 140 129 13 25 42 61 65 79
35 28 41 38 41 71 0 21 -5 53 -11 70 -11 31 -14 32 -48 27 -20 -4 -99 -9 -176
-12 -116 -5 -147 -3 -179 10 -46 19 -49 19 -64 4z"/>
<path d="M29683 35206 c-215 -52 -343 -224 -343 -461 0 -142 41 -247 129 -336
95 -95 212 -135 367 -127 108 6 181 32 264 95 l60 45 0 174 0 174 -195 0 -195
0 0 -30 0 -30 160 0 160 0 0 -129 0 -130 -33 -25 c-196 -150 -503 -85 -607
128 -100 204 -23 465 163 555 149 73 330 56 460 -43 34 -26 34 -26 52 -6 18
20 18 21 -4 44 -32 34 -127 83 -196 101 -70 18 -170 18 -242 1z"/>
<path d="M32411 35204 c-172 -37 -292 -151 -337 -319 -33 -121 -11 -295 49
-398 72 -122 235 -207 398 -207 103 0 234 46 307 108 l33 27 -23 22 -24 23
-48 -35 c-77 -55 -143 -75 -245 -75 -93 0 -160 17 -221 56 -128 81 -198 251
-171 415 35 210 176 329 392 329 103 0 174 -22 246 -77 l46 -35 20 21 21 21
-23 24 c-55 59 -214 117 -316 115 -22 0 -69 -7 -104 -15z"/>
<path d="M28810 35183 c-21 -46 -361 -805 -381 -850 l-18 -43 37 0 38 0 50
113 50 112 273 0 273 0 50 -112 51 -113 38 0 38 0 -48 108 c-26 59 -119 266
-206 460 l-158 352 -37 0 c-30 0 -39 -5 -50 -27z m175 -331 c63 -144 115 -264
115 -267 0 -3 -110 -5 -244 -5 l-244 0 121 275 c67 151 125 271 129 267 4 -4
59 -125 123 -270z"/>
<path d="M30357 35203 c-4 -3 -7 -210 -7 -460 l0 -453 325 0 325 0 0 35 0 35
-290 0 -290 0 0 180 0 180 270 0 270 0 0 30 0 30 -270 0 -270 0 0 180 0 180
286 0 285 0 -3 33 -3 32 -311 3 c-171 1 -313 -1 -317 -5z"/>
<path d="M31190 34751 l0 -461 30 0 30 0 0 376 c0 239 4 373 10 369 5 -3 145
-172 312 -375 166 -204 308 -370 315 -370 10 0 13 89 13 461 l0 460 -32 -3
-33 -3 -5 -373 -5 -373 -304 373 c-167 205 -310 374 -317 376 -12 3 -14 -71
-14 -457z"/>
<path d="M33027 35203 c-4 -3 -7 -210 -7 -460 l0 -453 325 0 325 0 0 35 0 35
-290 0 -290 0 0 180 0 180 270 0 270 0 0 30 0 30 -270 0 -270 0 0 180 0 180
286 0 285 0 -3 33 -3 32 -311 3 c-171 1 -313 -1 -317 -5z"/>
<path d="M38582 35027 c-38 -40 -25 -95 28 -122 l29 -15 -5 67 c-9 104 -14
111 -52 70z"/>
<path d="M40216 35041 c-4 -6 -9 -40 -13 -76 -5 -56 -4 -65 11 -65 22 0 54 34
62 66 10 38 -43 104 -60 75z"/>
<path d="M39090 35020 c-38 -38 -13 -94 39 -88 20 2 27 9 29 32 8 71 -25 99
-68 56z"/>
<path d="M39660 35020 c-15 -28 -16 -78 -2 -92 16 -16 60 -1 78 27 13 21 14
28 2 52 -17 36 -62 44 -78 13z"/>
<path d="M50260 32703 c-13 -3 -46 -14 -72 -24 -27 -10 -72 -19 -101 -19 -31
0 -70 -9 -97 -21 -25 -11 -80 -29 -122 -39 -42 -10 -114 -33 -160 -51 -103
-42 -386 -184 -413 -209 -11 -10 -31 -21 -44 -25 -14 -4 -45 -26 -70 -49 -25
-24 -74 -64 -108 -89 -63 -48 -92 -77 -205 -202 -158 -176 -226 -263 -302
-389 -10 -17 -29 -44 -42 -59 -13 -16 -24 -34 -24 -40 0 -15 -68 -151 -95
-192 -21 -31 -25 -39 -85 -205 -46 -127 -67 -187 -91 -261 -10 -30 -32 -149
-49 -265 -31 -216 -39 -417 -20 -499 5 -22 14 -79 20 -126 12 -97 66 -292 99
-357 20 -40 38 -93 91 -271 11 -36 31 -81 45 -101 14 -20 25 -42 25 -49 0 -7
11 -35 24 -61 13 -26 29 -73 36 -103 6 -31 20 -67 31 -81 11 -14 27 -49 35
-77 9 -29 22 -62 30 -73 7 -12 20 -55 29 -96 9 -41 24 -99 35 -128 11 -29 20
-75 20 -103 0 -27 6 -75 14 -107 20 -79 33 -147 52 -282 9 -63 28 -151 42
-195 63 -193 218 -381 358 -434 33 -12 82 -31 109 -43 28 -11 74 -24 104 -29
29 -5 69 -17 90 -25 20 -9 65 -20 100 -25 35 -5 94 -23 131 -39 38 -17 84 -30
103 -30 19 0 81 -14 138 -31 57 -17 142 -41 189 -54 47 -12 128 -35 180 -49
176 -50 209 -56 333 -62 181 -10 289 17 413 103 120 83 269 227 304 292 29 56
200 259 320 380 72 72 248 222 335 283 99 71 246 188 280 224 11 11 46 42 78
67 32 26 68 57 80 68 12 12 60 52 107 90 83 67 117 105 218 239 80 108 222
349 222 379 0 6 17 48 39 93 21 46 48 108 59 138 18 48 88 434 108 590 3 30
12 66 19 80 7 14 16 42 20 63 4 20 11 34 16 31 5 -3 8 44 8 108 -1 76 -4 102
-9 78 l-7 -35 -2 40 c-1 22 -11 60 -22 85 -12 25 -25 74 -29 110 -13 120 -92
501 -114 553 -59 138 -80 187 -96 217 -57 115 -88 171 -121 220 -20 30 -43 69
-52 85 -8 17 -25 39 -37 50 -12 11 -29 33 -38 50 -31 61 -241 281 -360 379
-40 33 -76 64 -80 70 -11 18 -94 76 -108 76 -7 0 -31 16 -54 35 -23 19 -50 35
-59 35 -10 0 -35 13 -57 30 -21 16 -45 30 -51 30 -7 0 -61 25 -120 56 -101 52
-325 134 -403 149 -35 6 -105 25 -190 51 -25 7 -88 21 -140 29 -52 9 -113 23
-134 31 -31 12 -106 16 -360 19 -177 2 -332 1 -346 -2z m585 -241 c104 -7 142
-14 192 -36 34 -14 79 -26 100 -26 21 -1 63 -10 93 -21 30 -11 94 -29 143 -40
48 -10 100 -25 115 -33 16 -8 51 -20 78 -27 27 -6 69 -24 94 -39 25 -16 59
-31 77 -35 18 -3 42 -14 55 -24 13 -10 42 -25 65 -34 104 -41 351 -226 449
-336 22 -25 60 -67 85 -92 24 -26 55 -66 69 -89 14 -23 54 -81 89 -128 35 -47
72 -104 83 -127 35 -71 77 -148 92 -164 14 -17 79 -183 91 -236 4 -16 22 -75
41 -130 72 -218 97 -387 95 -637 -2 -253 -31 -432 -101 -616 -11 -29 -20 -61
-20 -71 0 -35 -83 -263 -110 -301 -29 -41 -69 -111 -94 -165 -13 -28 -32 -57
-41 -65 -10 -8 -51 -59 -92 -113 -105 -139 -286 -307 -443 -413 -25 -17 -74
-50 -110 -74 -36 -24 -99 -71 -140 -105 -41 -33 -95 -74 -119 -90 -46 -31
-280 -261 -342 -336 -20 -24 -67 -84 -104 -134 -36 -49 -99 -124 -139 -165
-39 -41 -85 -93 -101 -115 -43 -57 -79 -85 -154 -122 -63 -32 -71 -33 -186
-33 -70 0 -143 6 -175 14 -138 36 -191 50 -280 77 -52 16 -122 33 -156 39 -34
6 -89 21 -124 35 -35 14 -86 28 -114 31 -28 4 -78 17 -111 30 -33 13 -88 27
-122 33 -34 5 -74 16 -90 25 -16 8 -58 22 -93 31 -36 9 -77 25 -91 35 -15 11
-39 22 -53 26 -40 10 -173 159 -181 203 -4 20 -20 63 -35 96 -16 33 -31 85
-35 115 -6 51 -21 155 -45 305 -5 33 -14 106 -20 162 -8 76 -17 114 -35 145
-14 24 -27 63 -31 88 -7 46 -42 143 -94 260 -16 36 -32 79 -36 95 -4 17 -24
64 -45 106 -22 42 -39 80 -39 84 0 4 -13 35 -29 69 -38 80 -91 212 -91 228 0
7 -12 35 -26 62 -14 27 -30 78 -35 115 -5 36 -16 95 -23 131 -18 80 -36 247
-36 320 0 61 26 296 34 309 3 4 12 52 20 107 9 58 26 122 40 154 14 30 26 63
26 73 0 30 60 196 97 268 18 37 33 71 33 76 0 6 8 21 19 34 10 13 32 49 48 79
131 240 344 482 578 655 22 17 65 50 95 74 30 24 70 51 90 60 19 9 57 31 84
49 28 18 54 32 59 32 5 0 22 9 37 20 16 12 49 27 74 34 24 8 58 23 74 35 17
11 37 21 44 21 8 0 36 11 63 25 27 13 71 29 98 35 28 6 71 20 96 31 25 11 82
25 126 30 44 6 102 14 129 17 63 9 303 6 471 -6z"/>
<path d="M34595 31830 c-44 -3 -116 -14 -160 -24 -101 -23 -282 -83 -315 -104
-14 -9 -63 -36 -109 -59 -173 -89 -358 -251 -457 -401 -21 -31 -50 -75 -64
-97 -49 -73 -98 -179 -129 -278 -17 -53 -31 -104 -31 -112 0 -8 -12 -50 -27
-92 -27 -77 -27 -80 -27 -358 -1 -271 0 -282 22 -328 13 -26 27 -73 33 -104
12 -62 68 -207 101 -262 112 -182 288 -361 448 -456 36 -21 81 -49 100 -61 51
-33 313 -164 328 -164 7 0 32 -10 55 -22 23 -12 69 -29 102 -39 33 -9 80 -23
105 -32 25 -10 137 -46 250 -83 112 -36 216 -72 230 -79 14 -8 69 -31 124 -51
143 -52 306 -139 431 -229 189 -137 381 -370 405 -493 6 -31 21 -90 32 -131
29 -109 29 -392 -1 -506 -11 -44 -25 -109 -32 -144 -20 -122 -172 -371 -275
-453 -33 -26 -66 -53 -74 -60 -8 -7 -49 -35 -90 -61 -238 -153 -422 -196 -815
-189 -220 3 -325 26 -548 119 -111 46 -160 72 -281 152 -37 26 -91 61 -120 80
-61 40 -243 222 -344 344 -43 51 -81 87 -91 87 -38 0 -221 -259 -221 -310 1
-79 279 -385 476 -524 199 -141 312 -202 451 -247 37 -12 95 -33 128 -46 33
-12 75 -23 93 -23 19 0 61 -6 95 -14 34 -8 89 -20 122 -27 81 -17 482 -24 560
-9 225 42 280 54 361 80 127 40 262 107 409 202 83 54 290 263 330 334 16 27
43 72 62 101 18 28 33 55 33 60 0 5 5 14 12 21 38 38 136 387 177 633 38 228
-15 576 -132 865 -29 73 -83 174 -101 188 -7 6 -38 48 -70 93 -125 181 -356
354 -658 492 -37 17 -71 31 -76 31 -5 0 -39 16 -75 35 -36 19 -76 35 -89 35
-13 0 -41 10 -63 21 -22 12 -71 32 -110 45 -105 34 -233 81 -269 97 -17 8 -47
20 -66 25 -19 6 -73 25 -120 42 -47 18 -108 40 -135 50 -132 46 -365 166 -440
227 -16 13 -59 45 -95 71 -77 57 -163 164 -225 285 -42 80 -47 98 -56 190 -5
56 -12 127 -15 157 -4 33 0 85 9 130 8 41 16 104 16 140 1 53 10 82 47 165 69
153 120 231 219 333 141 146 334 257 510 295 194 42 290 51 387 39 223 -28
320 -46 423 -79 113 -37 322 -135 385 -182 165 -123 350 -307 399 -398 19 -37
63 -31 100 14 17 21 31 42 31 47 0 5 34 53 75 107 41 53 75 106 75 117 0 20
-177 231 -244 292 -22 19 -72 65 -112 101 -39 36 -89 74 -110 84 -22 10 -55
30 -74 45 -19 15 -46 31 -60 35 -14 4 -43 20 -64 36 -22 16 -46 29 -54 29 -8
0 -35 11 -61 24 -212 109 -610 166 -966 136z"/>
<path d="M6220 31750 c-124 -3 -235 -9 -247 -14 l-23 -8 0 -2834 c0 -2255 3
-2834 13 -2841 6 -4 93 -9 193 -11 149 -3 182 -1 192 11 10 11 12 564 12 2475
0 2222 2 2462 16 2476 8 9 19 16 23 16 16 0 39 -36 45 -71 3 -19 14 -51 24
-70 9 -19 23 -54 31 -79 7 -25 20 -63 28 -85 9 -22 26 -76 39 -120 24 -83 46
-151 119 -365 71 -207 105 -317 105 -337 0 -10 14 -47 30 -81 17 -35 30 -69
30 -75 0 -7 11 -36 25 -66 14 -29 32 -84 40 -122 7 -38 21 -83 29 -101 8 -18
20 -55 26 -81 6 -26 21 -65 34 -85 13 -20 29 -62 36 -92 7 -30 19 -67 26 -82
8 -15 21 -59 29 -98 8 -39 24 -88 34 -108 21 -40 65 -165 99 -277 33 -114 71
-223 127 -370 12 -33 25 -80 29 -104 4 -24 14 -57 24 -75 9 -17 26 -67 38
-111 29 -105 71 -224 89 -251 8 -12 21 -54 29 -92 8 -39 22 -82 31 -95 8 -13
20 -49 24 -78 10 -55 18 -77 51 -139 11 -19 19 -44 20 -56 0 -12 11 -42 24
-67 14 -25 30 -72 35 -104 11 -57 68 -229 95 -281 7 -15 32 -92 55 -172 24
-80 64 -201 91 -270 26 -69 51 -143 55 -165 9 -55 52 -143 75 -155 28 -15 108
7 125 34 7 11 16 45 19 75 4 30 18 75 32 100 13 25 24 51 24 58 0 7 11 37 24
66 13 30 40 115 61 188 20 74 49 166 65 204 54 137 63 161 80 235 23 96 55
189 91 265 16 33 32 76 35 95 4 19 15 54 26 78 10 24 23 73 28 109 6 36 22 84
35 107 13 23 29 61 35 86 6 25 18 55 26 67 8 13 21 54 29 92 8 37 23 84 34
102 11 19 24 60 30 92 6 31 15 66 22 78 11 22 54 145 94 269 49 156 56 178 94
290 22 63 46 135 55 160 41 122 59 180 70 235 7 33 24 80 38 105 14 25 29 61
33 80 4 19 18 56 31 81 12 25 26 70 30 100 4 30 17 77 30 104 12 28 27 69 33
93 5 24 20 60 34 80 14 20 28 60 32 87 4 28 15 69 25 93 11 23 24 68 30 99 5
31 17 67 25 79 17 27 74 199 174 524 10 36 27 85 36 110 10 25 26 78 36 119
20 78 41 111 69 111 29 0 40 -24 39 -86 0 -32 -3 -1128 -7 -2434 l-7 -2375 28
-27 27 -28 150 0 c142 0 150 1 177 24 21 18 27 31 25 57 -1 19 -3 1284 -5
2811 l-2 2777 -21 21 c-20 20 -32 21 -272 23 -236 1 -252 0 -273 -18 -31 -29
-49 -69 -60 -137 -5 -33 -20 -81 -33 -107 -13 -25 -26 -61 -29 -79 -4 -19 -16
-47 -27 -63 -12 -15 -26 -54 -32 -86 -5 -32 -21 -87 -33 -123 -13 -36 -27 -81
-30 -100 -4 -19 -20 -55 -36 -79 -16 -25 -29 -57 -29 -72 0 -16 -9 -52 -21
-81 -11 -28 -25 -75 -30 -102 -8 -45 -39 -130 -99 -276 -10 -25 -25 -72 -34
-105 -8 -33 -21 -85 -29 -116 -13 -50 -41 -127 -97 -269 -10 -25 -23 -69 -29
-98 -6 -29 -20 -71 -31 -93 -12 -22 -26 -65 -31 -97 -6 -31 -19 -73 -29 -93
-11 -20 -24 -58 -31 -85 -6 -27 -22 -67 -34 -89 -12 -22 -27 -69 -33 -104 -7
-35 -18 -72 -27 -81 -9 -9 -22 -49 -30 -88 -8 -38 -26 -93 -40 -120 -14 -27
-25 -58 -25 -67 0 -9 -11 -38 -23 -64 -13 -25 -30 -78 -37 -116 -13 -71 -66
-230 -96 -287 -18 -35 -49 -134 -68 -218 -18 -77 -65 -217 -91 -270 -13 -25
-27 -68 -33 -95 -6 -28 -20 -72 -31 -97 -11 -26 -25 -73 -30 -104 -6 -32 -18
-68 -26 -81 -19 -28 -73 -180 -90 -253 -7 -30 -24 -80 -39 -110 -14 -30 -26
-69 -26 -87 0 -48 -19 -83 -45 -83 -41 0 -83 74 -100 174 -3 21 -17 61 -30 90
-13 28 -30 78 -38 111 -17 66 -66 207 -86 243 -7 13 -21 58 -32 101 -11 43
-36 123 -56 177 -65 179 -94 268 -108 329 -18 83 -51 179 -86 250 -15 33 -33
82 -39 109 -6 26 -17 60 -24 75 -8 15 -20 56 -26 91 -6 36 -21 81 -32 100 -11
19 -27 59 -34 88 -8 29 -20 63 -28 75 -8 12 -21 54 -29 92 -8 39 -27 90 -41
115 -14 25 -26 59 -26 75 -1 17 -8 48 -17 70 -8 22 -28 74 -43 115 -15 41 -35
92 -44 112 -9 21 -16 46 -16 58 0 11 -10 48 -23 82 -23 62 -107 305 -132 383
-31 96 -65 222 -65 239 0 11 -13 43 -29 71 -16 29 -33 70 -37 91 -4 21 -17 59
-29 84 -12 25 -27 73 -33 107 -6 33 -20 79 -31 100 -10 21 -22 57 -26 78 -4
22 -18 56 -30 75 -13 19 -28 62 -34 94 -6 33 -20 77 -31 98 -11 21 -26 69 -34
107 -8 38 -22 80 -30 93 -19 30 -63 154 -81 231 -7 32 -19 65 -26 73 -20 24
-66 44 -96 42 -15 -1 -129 -5 -253 -8z"/>
<path d="M22126 31739 l-21 -17 -5 -2819 c-5 -2770 -5 -2818 14 -2840 19 -22
26 -23 171 -23 135 0 154 2 169 19 15 17 16 186 16 2399 0 1310 0 2385 -1
2389 -5 29 3 65 16 69 18 7 88 -66 106 -111 7 -16 36 -66 64 -110 28 -44 64
-105 80 -135 15 -30 45 -81 67 -113 21 -32 51 -83 66 -115 15 -31 48 -86 72
-122 25 -36 55 -84 68 -107 12 -24 32 -62 45 -85 12 -24 40 -69 62 -101 52
-76 110 -173 131 -217 9 -19 30 -55 47 -80 57 -84 64 -95 82 -130 10 -19 46
-81 82 -137 35 -57 66 -111 70 -120 9 -27 84 -155 104 -178 16 -19 43 -65 82
-144 10 -20 29 -52 41 -71 29 -45 71 -112 121 -195 22 -37 62 -101 89 -143 27
-42 55 -92 64 -112 8 -19 27 -53 42 -75 36 -51 170 -281 170 -291 0 -4 24 -44
54 -88 29 -45 65 -103 80 -131 40 -75 70 -122 92 -147 11 -13 41 -66 67 -120
25 -53 51 -99 57 -103 16 -10 72 -101 114 -185 21 -41 50 -90 65 -109 16 -20
38 -56 51 -81 12 -25 28 -52 35 -60 7 -8 31 -51 55 -95 23 -44 56 -100 74
-125 17 -25 40 -61 49 -80 26 -52 70 -125 87 -145 8 -9 35 -54 61 -98 72 -124
91 -156 125 -207 18 -26 42 -70 54 -98 12 -29 38 -66 57 -82 l34 -30 159 0
c148 0 160 1 170 20 7 13 10 883 10 2837 0 2298 -3 2821 -13 2837 -12 17 -26
19 -153 21 -142 2 -167 -2 -178 -31 -3 -9 -6 -1070 -5 -2358 1 -1287 1 -2354
1 -2370 -2 -36 -18 -56 -46 -56 -29 0 -57 31 -91 100 -15 30 -43 79 -62 109
-19 29 -53 88 -75 130 -22 42 -53 92 -67 111 -37 50 -89 137 -97 163 -3 12
-12 29 -19 37 -22 26 -86 123 -111 170 -30 55 -55 95 -109 180 -24 36 -54 88
-68 115 -14 28 -55 97 -91 154 -36 57 -66 108 -66 112 0 10 -124 213 -161 263
-16 22 -29 45 -29 51 0 7 -13 31 -30 53 -16 23 -30 46 -30 51 0 4 -14 26 -31
47 -18 22 -47 71 -65 111 -19 39 -44 84 -57 100 -14 15 -58 87 -100 159 -42
72 -92 155 -112 185 -19 29 -35 57 -35 62 0 4 -16 31 -35 60 -19 28 -35 55
-35 60 0 4 -24 43 -52 85 -29 42 -62 97 -74 122 -11 25 -28 51 -37 59 -10 7
-17 19 -17 26 0 7 -15 32 -33 56 -45 60 -72 104 -101 164 -13 28 -45 82 -71
120 -26 39 -62 101 -81 139 -19 38 -50 91 -69 118 -19 26 -35 51 -35 54 0 3
-13 24 -29 47 -16 24 -36 59 -44 79 -9 20 -40 72 -70 115 -29 43 -73 114 -97
158 -24 44 -50 89 -60 100 -9 11 -32 47 -51 80 -20 33 -55 94 -79 135 -24 41
-54 89 -67 106 -13 17 -45 71 -72 121 -27 50 -73 126 -101 169 -29 43 -59 95
-67 116 -9 21 -24 43 -35 49 -10 6 -89 11 -175 13 -135 2 -158 0 -177 -15z"/>
<path d="M31981 31751 c-117 -6 -125 -7 -142 -31 -18 -24 -19 -115 -19 -2835
0 -2521 1 -2811 15 -2825 13 -12 47 -16 170 -18 l155 -3 26 26 c21 21 25 32
20 57 -3 17 -6 1280 -6 2808 0 2631 -1 2779 -17 2799 -22 26 -48 29 -202 22z"/>
<path d="M37130 31748 c-44 -16 -50 -43 -50 -216 0 -160 0 -163 25 -187 l24
-25 730 0 731 0 15 -23 c13 -21 15 -306 15 -2625 0 -2399 1 -2602 16 -2617 14
-14 38 -16 170 -13 122 2 156 6 169 19 14 13 15 274 13 2560 -1 1399 -2 2568
-2 2596 -1 44 3 57 26 79 16 16 37 27 55 27 15 0 341 -1 723 -2 646 -2 696 -1
707 15 21 28 25 72 21 232 -2 120 -6 155 -18 167 -14 14 -195 15 -1684 18
-917 1 -1675 -1 -1686 -5z"/>
<path d="M41407 31752 c-15 -2 -32 -12 -37 -22 -7 -13 -10 -948 -10 -2832 0
-1547 0 -2816 0 -2820 0 -4 7 -14 16 -22 13 -13 43 -16 174 -16 135 0 161 2
179 18 l22 17 -1 1089 c0 599 -3 1107 -6 1127 -8 45 0 82 22 103 14 14 73 16
503 16 567 0 510 12 587 -123 45 -78 65 -115 179 -332 26 -49 53 -97 60 -105
8 -8 37 -60 66 -115 90 -173 109 -208 133 -239 13 -17 27 -42 31 -56 9 -32 60
-122 100 -180 29 -42 61 -103 99 -190 9 -19 30 -55 49 -80 18 -25 50 -86 72
-135 22 -50 64 -126 92 -170 29 -44 53 -86 53 -92 0 -7 14 -35 30 -61 17 -27
30 -54 30 -59 0 -6 14 -30 32 -54 18 -24 54 -87 82 -139 27 -52 60 -117 74
-143 14 -26 38 -59 54 -72 29 -25 33 -25 212 -25 128 0 186 4 194 12 21 21 13
54 -28 116 -22 33 -40 66 -40 74 0 8 -17 37 -37 64 -21 27 -68 109 -105 182
-37 73 -79 147 -94 165 -15 18 -47 73 -70 122 -54 112 -103 201 -130 240 -12
17 -26 45 -32 64 -7 18 -33 65 -59 104 -50 74 -72 113 -135 240 -21 41 -56 99
-78 128 -22 29 -40 61 -40 70 0 9 -13 36 -30 60 -16 24 -30 49 -30 55 0 6 -23
46 -51 89 -29 43 -66 110 -83 149 -17 39 -46 91 -64 115 -17 24 -32 48 -32 52
0 4 -11 25 -25 45 -14 20 -29 52 -34 70 -5 19 -21 48 -35 64 -14 17 -28 47
-32 67 -6 31 -3 39 17 56 16 13 32 17 53 13 77 -16 300 54 463 143 149 83 271
187 366 314 88 118 150 216 162 257 4 14 23 54 41 89 19 35 34 70 34 78 0 8
11 33 24 56 17 28 30 75 40 145 8 56 18 107 21 112 3 5 13 36 21 67 13 47 16
118 16 361 -1 318 -2 330 -32 427 -11 33 -24 96 -30 139 -6 50 -20 96 -35 124
-14 25 -25 51 -25 60 0 8 -12 35 -26 59 -14 24 -32 65 -40 91 -13 45 -37 85
-133 223 -55 78 -236 266 -265 275 -11 3 -32 16 -46 29 -40 35 -111 79 -160
99 -25 10 -52 23 -60 31 -8 7 -31 17 -50 23 -298 94 -280 92 -1300 95 -470 1
-867 1 -883 -1z m1838 -443 c22 -6 68 -17 101 -25 90 -18 202 -75 302 -151
110 -84 133 -108 207 -217 33 -49 72 -103 86 -120 15 -17 32 -51 39 -76 7 -25
20 -61 30 -80 10 -20 23 -61 29 -92 5 -31 22 -85 37 -120 l27 -63 0 -286 c0
-269 -1 -289 -21 -330 -24 -53 -31 -75 -48 -154 -11 -53 -52 -169 -72 -202
-19 -31 -119 -174 -154 -220 -47 -61 -159 -156 -246 -206 -35 -20 -66 -37 -70
-37 -4 0 -25 -12 -46 -26 -41 -28 -149 -53 -316 -73 -62 -8 -308 -11 -716 -11
-607 1 -622 1 -643 21 -11 11 -21 30 -21 42 0 12 0 558 -1 1212 l0 1190 23 20
c23 20 36 20 728 18 498 -2 717 -6 745 -14z"/>
<path d="M45562 31749 c-11 -4 -25 -17 -31 -28 -8 -13 -11 -876 -11 -2833 l-1
-2813 22 -17 c18 -15 43 -18 161 -18 141 0 198 12 198 43 0 6 0 1274 0 2815 0
1828 -4 2810 -10 2822 -6 10 -18 21 -29 25 -29 9 -276 12 -299 4z"/>
<path d="M26995 31727 c-13 -21 -15 -326 -15 -2837 0 -2640 1 -2814 17 -2832
16 -18 44 -19 902 -15 855 3 889 4 976 24 50 12 120 28 156 36 36 8 75 20 87
26 11 6 43 16 71 22 65 14 355 160 446 225 39 27 88 61 110 74 92 55 376 332
422 410 15 25 43 65 63 90 50 61 200 297 200 316 0 4 13 28 29 53 16 25 43 85
60 133 16 48 50 135 74 195 25 59 48 128 52 153 4 24 18 72 31 106 13 34 27
104 33 155 5 52 19 120 31 151 14 39 22 87 25 147 1 49 6 95 10 102 4 6 11 55
16 108 4 53 13 144 19 203 9 80 9 133 0 220 -6 62 -15 156 -19 209 -5 53 -12
102 -16 109 -5 8 -9 54 -11 105 -1 57 -8 106 -19 131 -9 21 -27 100 -39 175
-13 74 -28 145 -35 157 -6 11 -18 53 -26 92 -8 40 -22 84 -30 99 -21 37 -85
202 -85 218 0 7 -29 71 -65 141 -59 114 -79 152 -150 270 -11 19 -46 67 -77
108 -32 40 -58 76 -58 79 0 3 -34 47 -76 98 -81 97 -232 245 -293 287 -20 13
-67 49 -106 78 -38 30 -83 61 -100 69 -16 7 -61 34 -100 58 -83 54 -246 135
-269 135 -9 0 -35 9 -57 21 -22 11 -82 29 -132 40 -51 11 -103 24 -117 29 -14
6 -86 18 -160 27 -114 14 -262 17 -947 20 l-812 3 -16 -23z m1098 -407 c350
-1 619 -5 638 -10 18 -5 75 -17 125 -25 51 -9 132 -29 179 -46 48 -16 91 -29
96 -29 12 0 178 -79 209 -100 14 -9 59 -39 100 -66 41 -26 89 -61 105 -77 17
-15 43 -35 58 -43 36 -19 231 -214 275 -274 38 -52 91 -128 129 -185 47 -69
181 -342 189 -382 4 -21 20 -68 36 -105 15 -37 28 -72 28 -78 0 -6 11 -35 24
-64 14 -29 32 -95 41 -147 9 -52 22 -116 30 -143 9 -29 15 -91 15 -151 0 -57
6 -123 14 -151 40 -139 18 -825 -33 -1044 -11 -47 -25 -116 -31 -154 -6 -37
-20 -87 -32 -110 -12 -22 -29 -66 -39 -96 -45 -137 -89 -250 -120 -308 -19
-35 -42 -80 -53 -100 -35 -70 -98 -174 -115 -191 -9 -9 -44 -55 -79 -103 -35
-48 -89 -108 -120 -133 -31 -25 -70 -63 -87 -86 -16 -22 -46 -50 -65 -61 -19
-12 -47 -32 -62 -46 -15 -14 -43 -35 -61 -46 -19 -12 -67 -43 -107 -69 -75
-50 -231 -127 -259 -127 -9 0 -43 -12 -76 -26 -92 -38 -260 -70 -440 -84 -163
-13 -1182 -12 -1205 0 -11 6 -24 19 -30 30 -14 27 -15 4773 0 4800 12 22 64
41 96 34 12 -2 294 -4 627 -4z"/>
<path d="M26935 22054 c-142 -24 -334 -84 -405 -127 -19 -12 -60 -34 -90 -49
-139 -70 -361 -289 -451 -445 -98 -170 -134 -258 -164 -403 -9 -41 -29 -102
-45 -135 -37 -78 -48 -122 -56 -225 -8 -110 9 -218 47 -300 20 -43 33 -89 38
-136 5 -59 14 -83 51 -145 25 -40 63 -95 86 -120 23 -25 56 -72 74 -104 18
-32 62 -92 97 -134 58 -69 107 -139 205 -291 52 -81 103 -187 123 -255 28
-100 150 -246 255 -308 41 -23 58 -26 173 -30 104 -4 132 -8 148 -22 28 -27
24 -71 -10 -106 -31 -31 -62 -36 -118 -20 -42 12 -73 4 -73 -20 0 -24 46 -44
75 -32 16 8 415 9 633 2 38 -1 58 3 70 15 15 15 15 18 2 27 -8 5 -37 9 -65 8
-27 -1 -58 -1 -68 0 -29 2 -67 47 -67 80 0 47 39 62 176 66 127 4 159 14 248
82 62 47 149 167 172 236 24 74 114 254 153 307 18 25 60 84 94 131 34 48 107
147 162 220 179 239 176 232 251 564 22 97 18 387 -6 524 -50 275 -96 394
-220 571 -82 116 -242 279 -336 341 -116 78 -211 130 -261 145 -26 8 -74 25
-108 38 -33 14 -127 36 -208 50 -197 34 -382 35 -582 0z m635 -141 c200 -39
305 -93 508 -259 100 -81 163 -147 188 -195 9 -19 33 -54 53 -79 64 -79 113
-170 142 -264 15 -50 37 -118 50 -151 21 -56 22 -76 22 -320 0 -226 -2 -266
-18 -305 -10 -25 -32 -88 -50 -141 -41 -121 -120 -237 -348 -516 -59 -72 -108
-154 -168 -283 -16 -36 -45 -96 -64 -135 -19 -38 -39 -89 -45 -112 -8 -34 -23
-51 -74 -92 -35 -28 -76 -55 -91 -61 -47 -18 -177 -24 -219 -10 -66 22 -65 8
-58 477 8 501 -1 465 135 514 98 35 144 122 96 183 -54 68 -163 76 -207 15
-23 -32 -194 -159 -215 -159 -12 0 -58 39 -117 100 -96 98 -99 100 -144 100
-39 0 -50 -5 -80 -36 -46 -48 -51 -74 -24 -135 23 -55 59 -79 117 -79 21 0 35
-7 45 -22 21 -33 37 -138 35 -221 -2 -40 -2 -214 0 -387 l3 -315 -28 -24 c-27
-22 -34 -23 -120 -18 -110 6 -142 20 -216 90 -39 37 -60 67 -72 102 -49 142
-236 479 -317 569 -43 49 -187 225 -220 270 -18 24 -45 93 -99 256 -21 63 -49
142 -61 175 -19 52 -22 81 -23 220 l-1 160 31 60 c18 34 36 89 42 128 18 114
107 292 211 423 209 261 421 409 671 468 212 50 506 54 730 9z m-564 -1797 c7
-18 -13 -56 -29 -56 -7 0 -23 9 -36 21 -17 16 -20 24 -10 35 15 18 68 18 75 0z
m501 3 c17 -17 4 -39 -22 -39 -26 0 -50 24 -40 40 8 13 48 13 62 -1z m-242
-189 c19 -33 20 -56 26 -460 4 -270 2 -433 -4 -447 -21 -47 -96 -54 -137 -13
-19 19 -20 35 -20 428 1 423 3 444 44 508 25 36 64 30 91 -16z m15 -1110 c24
-24 25 -41 5 -80 -20 -38 -49 -53 -86 -45 -31 7 -69 55 -69 87 0 53 108 80
150 38z"/>
<path d="M36943 19448 c3 -384 6 -451 21 -502 57 -193 186 -324 376 -380 84
-26 240 -31 330 -12 170 36 296 128 364 268 62 125 66 162 66 641 l0 427 -120
0 -120 0 0 -367 c0 -203 -5 -406 -10 -452 -24 -207 -142 -310 -345 -299 -140
7 -226 65 -284 188 l-26 55 -3 438 -3 437 -125 0 -125 0 4 -442z"/>
<path d="M38330 19230 l0 -661 328 3 c364 5 387 8 520 75 130 65 234 189 287
341 22 63 28 101 32 208 7 161 -10 247 -69 365 -71 143 -183 240 -340 297 -73
26 -75 26 -415 30 l-343 3 0 -661z m682 401 c80 -31 160 -107 198 -186 101
-213 30 -493 -149 -585 -78 -39 -146 -50 -323 -50 l-168 0 0 426 0 426 193 -4
c170 -4 198 -7 249 -27z"/>
<path d="M31013 19486 c-215 -52 -343 -224 -343 -461 0 -142 41 -247 129 -336
95 -95 212 -135 367 -127 108 6 181 32 264 95 l60 45 0 174 0 174 -195 0 -195
0 0 -30 0 -30 160 0 160 0 0 -129 0 -130 -33 -25 c-196 -150 -503 -85 -607
128 -100 204 -23 465 163 555 149 73 330 56 460 -43 34 -26 34 -26 52 -6 18
20 18 21 -4 44 -32 34 -127 83 -196 101 -70 18 -170 18 -242 1z"/>
<path d="M30140 19463 c-21 -46 -361 -805 -381 -850 l-18 -43 37 0 38 0 50
113 50 112 273 0 273 0 50 -112 51 -113 38 0 38 0 -48 108 c-26 59 -119 266
-206 460 l-158 352 -37 0 c-30 0 -39 -5 -50 -27z m175 -331 c63 -144 115 -264
115 -267 0 -3 -110 -5 -244 -5 l-244 0 121 275 c67 151 125 271 129 267 4 -4
59 -125 123 -270z"/>
<path d="M31677 19483 c-4 -3 -7 -210 -7 -460 l0 -453 325 0 325 0 0 35 0 35
-290 0 -290 0 0 180 0 180 270 0 270 0 0 30 0 30 -270 0 -270 0 0 180 0 180
286 0 285 0 -3 33 -3 32 -311 3 c-171 1 -313 -1 -317 -5z"/>
<path d="M32510 19031 l0 -461 30 0 30 0 0 376 c0 245 3 373 10 369 5 -3 146
-172 312 -376 166 -203 307 -369 315 -369 11 0 13 85 13 461 l0 460 -32 -3
-33 -3 -5 -373 -5 -373 -304 373 c-167 205 -310 374 -317 376 -12 3 -14 -71
-14 -457z"/>
<path d="M27473 18548 c-47 -24 -54 -42 -22 -59 27 -14 76 -4 109 21 20 16 23
22 14 37 -16 25 -52 26 -101 1z"/>
<path d="M26907 18553 c-14 -13 -6 -42 15 -57 46 -32 91 -9 68 34 -14 26 -66
41 -83 23z"/>
<path d="M26992 18448 c-7 -7 -12 -36 -12 -66 0 -46 4 -58 29 -81 15 -14 48
-58 73 -96 52 -81 109 -135 142 -135 32 0 112 73 140 129 13 25 42 61 65 79
35 28 41 38 41 71 0 21 -5 53 -11 70 -11 31 -14 32 -48 27 -20 -4 -99 -9 -176
-12 -116 -5 -147 -3 -179 10 -46 19 -49 19 -64 4z"/>
<path d="M28870 18183 c0 -3 15 -22 33 -43 17 -20 40 -47 50 -59 10 -12 22
-19 27 -16 21 13 8 45 -31 78 -37 32 -79 53 -79 40z"/>
<path d="M26392 18037 c-38 -40 -25 -95 28 -122 l29 -15 -5 67 c-9 104 -14
111 -52 70z"/>
<path d="M28026 18051 c-4 -6 -9 -40 -13 -76 -5 -56 -4 -65 11 -65 22 0 54 34
62 66 10 38 -43 104 -60 75z"/>
<path d="M26900 18030 c-38 -38 -13 -94 39 -88 20 2 27 9 29 32 8 71 -25 99
-68 56z"/>
<path d="M27470 18030 c-15 -28 -16 -78 -2 -92 16 -16 60 -1 78 27 13 21 14
28 2 52 -17 36 -62 44 -78 13z"/>
<path d="M32225 17939 c-73 -22 -138 -50 -147 -63 -15 -22 4 -35 50 -30 96 9
202 57 202 92 0 24 -32 24 -105 1z"/>
</g>
</svg>
